<svg width="69" height="35" viewBox="0 0 69 35" fill="none" xmlns="http://www.w3.org/2000/svg">
<path d="M64.7256 32.6478C64.744 32.6473 64.7808 32.6463 64.7992 32.6458C64.744 32.6473 64.7256 32.6478 64.7256 32.6478ZM65.8704 33.5321C65.852 33.5326 65.852 33.5326 65.8704 33.5321C65.5942 33.5398 65.1155 33.5532 65.8505 33.4716C65.9242 33.4695 65.9794 33.468 65.8704 33.5321ZM66.0657 33.2212C66.7654 33.2017 66.0856 33.2818 65.8278 33.289C65.9935 33.2843 65.8292 33.35 66.0686 33.3433C66.087 33.3428 65.5361 33.4193 66.0332 33.4054C66.3293 33.4582 65.8505 33.4716 65.8704 33.5321C65.7599 33.5352 65.6112 33.4783 65.6296 33.4777C65.5928 33.4788 65.4808 33.4208 65.2783 33.4265C65.5729 33.4182 65.6451 33.3551 65.4794 33.3598C65.1097 33.309 65.791 33.29 65.5502 33.2356C65.6791 33.232 65.7527 33.23 65.7895 33.2289C65.8448 33.2274 65.9368 33.2248 66.121 33.2197C65.8065 33.1674 66.2116 33.1561 66.0657 33.2212ZM65.7314 33.1084C65.6946 33.1094 65.6578 33.1105 65.6578 33.1105C65.9708 33.1017 65.6946 33.1094 65.7314 33.1084ZM65.8051 33.1063C65.8051 33.1063 65.7682 33.1074 65.7498 33.1079C65.7682 33.1074 65.7866 33.1069 65.8419 33.1053C65.9339 33.1027 65.8603 33.1048 65.8051 33.1063ZM65.6379 33.0499C65.5458 33.0525 65.4906 33.054 65.4354 33.0556C65.3801 33.0571 65.2881 33.0597 65.1776 33.0628C65.0671 33.0659 65.0671 33.0659 65.1223 33.0643C65.3234 32.9976 65.7101 32.9868 65.6379 33.0499ZM65.4906 33.054C65.3617 33.0576 65.3249 33.0587 65.4523 32.994C65.6011 33.051 65.5643 33.052 65.4906 33.054ZM65.6762 33.1099C65.6209 33.1115 65.5473 33.1135 65.4368 33.1166C65.4552 33.1161 65.4736 33.1156 65.5105 33.1146C65.5473 33.1135 65.6025 33.112 65.6762 33.1099ZM64.7808 32.6463C64.7808 32.6463 64.7992 32.6458 64.8361 32.6447C64.8361 32.6447 64.8177 32.6452 64.7808 32.6463C64.6151 32.6509 64.5046 32.654 64.7256 32.6478C64.7072 32.6483 64.7256 32.6478 64.7808 32.6463ZM63.3702 32.9911C63.6833 32.9823 62.6875 32.9491 63.4793 32.927C63.3136 32.9316 63.2031 32.9347 63.5345 32.9254C63.4977 32.9264 63.3688 32.93 63.4793 32.927C63.7187 32.9203 64.0685 32.9105 63.3702 32.9911ZM64.6151 32.6509C64.6335 32.6504 64.6335 32.6504 64.6519 32.6499C64.6704 32.6494 64.6704 32.6494 64.6888 32.6488C64.6704 32.6494 64.6519 32.6499 64.6151 32.6509ZM64.6519 32.6499C64.6888 32.6488 64.7624 32.6468 64.7992 32.6458C64.8361 32.6447 64.8729 32.6437 64.9281 32.6422C64.9281 32.6422 64.8545 32.6442 64.6519 32.6499ZM65.5418 33.6634C65.5787 33.6624 65.6339 33.6609 65.6891 33.6593C65.5418 33.6634 65.5234 33.664 65.5418 33.6634ZM65.8051 33.1063C65.8051 33.1063 65.7866 33.1069 65.7682 33.1074C65.6946 33.1094 65.7498 33.1079 65.8051 33.1063ZM64.6888 32.6488C64.8375 32.7058 64.7639 32.7078 64.6888 32.6488V32.6488ZM66.2401 33.5829C66.7188 33.5695 65.522 33.6029 66.1126 33.6475C66.0574 33.649 66.6098 33.6336 65.7996 33.6562C65.9285 33.6526 65.5971 33.6619 65.5418 33.6634C65.2288 33.6722 65.301 33.6091 65.7798 33.5957C65.9271 33.5916 65.8704 33.5321 65.852 33.5326C65.9072 33.5311 65.9624 33.5295 65.9809 33.529C66.5885 33.512 66.056 33.588 66.2401 33.5829ZM63.7526 32.7972C63.771 32.7966 64.3234 32.7812 63.8999 32.793C63.6605 32.7997 63.5316 32.8033 63.4764 32.8049C63.458 32.8054 63.4396 32.8059 63.4212 32.8064C63.3659 32.808 63.3645 32.7469 63.4381 32.7449C63.475 32.7438 63.5302 32.7423 63.567 32.7413C63.9183 32.7925 63.5501 32.8028 63.7526 32.7972ZM63.3815 32.6854C63.3078 32.6874 63.4934 32.7433 63.6407 32.7392C63.5486 32.7418 63.475 32.7438 63.4396 32.8059C62.8872 32.8213 63.0345 32.8172 63.3475 32.8085C62.9424 32.8198 63.4948 32.8044 63.4028 32.8069C63.0529 32.8167 62.7951 32.8239 63.0345 32.8172C63.1634 32.8136 62.8688 32.8218 63.0529 32.8167C62.5189 32.8316 62.2796 32.8383 62.7767 32.8244C62.298 32.8378 63.0897 32.8157 63.145 32.8141C63.3843 32.8074 63.4197 32.7454 63.4565 32.7443C63.9537 32.7305 63.7158 32.7982 63.9551 32.7915C63.4168 32.6233 63.7483 32.614 63.3815 32.6854ZM1.16714 8.76781C0.563355 11.2891 2.02212 14.5468 0.936728 16.9594C1.158 17.7473 1.33236 18.1089 1.59847 17.6739C1.93229 20.1079 2.10648 23.5848 2.58793 26.8087C2.30021 26.3281 2.14891 26.9432 1.97631 27.4366C2.12537 28.2876 2.09175 29.2048 1.97726 29.8189C2.18701 30.1184 2.28996 29.016 2.3809 29.7465C1.96493 30.8576 2.70064 32.3642 2.66445 33.9533C2.92655 34.1292 3.03702 34.1262 3.19698 33.8774C3.19842 33.9384 3.19842 33.9384 3.19986 33.9995C3.46052 34.1143 3.57244 34.1723 3.73239 33.9235C3.73384 33.9845 3.73384 33.9845 3.73528 34.0456C3.99594 34.1605 4.10786 34.2184 4.26781 33.9696C4.26925 34.0307 4.26925 34.0307 4.27069 34.0917C4.53135 34.2066 4.64326 34.2646 4.80321 34.0158C4.80465 34.0768 4.80465 34.0768 4.80609 34.1379C5.06676 34.2527 5.17867 34.3107 5.33863 34.0619L5.34007 34.1229C5.60073 34.2378 5.71265 34.2958 5.85419 34.0475C5.85419 34.0475 5.85419 34.0475 5.85563 34.1085C6.11629 34.2234 6.2282 34.2814 6.36974 34.0331C6.36974 34.0331 6.36974 34.0331 6.37118 34.0941C6.63184 34.209 6.74376 34.267 6.90371 34.0182C6.90371 34.0182 6.90371 34.0182 6.90516 34.0792C7.16581 34.1941 7.27774 34.2521 7.41928 34.0038C7.41928 34.0038 7.41928 34.0038 7.42072 34.0648C7.68138 34.1797 7.79329 34.2377 7.93483 33.9894C8.17707 34.1048 8.289 34.1628 8.43198 33.9755C8.45039 33.975 8.45038 33.975 8.4688 33.9745C8.69263 34.0904 8.82296 34.1478 8.94753 33.9611C8.96594 33.9606 9.00277 33.9596 9.01974 33.898C9.20675 34.015 9.31867 34.0729 9.42626 33.9477C9.46309 33.9467 9.51689 33.8841 9.55371 33.8831C9.72087 33.9395 9.81437 33.998 9.90499 33.9344C9.96023 33.9328 10.014 33.8702 10.0877 33.8682C10.218 33.9256 10.2931 33.9846 10.3837 33.921C10.4574 33.9189 10.5296 33.8558 10.6386 33.7917C10.7321 33.8502 10.7874 33.8487 10.8426 33.8471C10.9361 33.9056 11.0267 33.842 11.1712 33.7158C11.2264 33.7142 11.2647 33.7742 11.3199 33.7727C11.4318 33.8307 11.5423 33.8276 11.7235 33.7003C11.7604 33.6993 11.7788 33.6988 11.817 33.7588C11.9488 33.8773 12.0578 33.8132 12.2575 33.6854C12.2759 33.6849 12.2943 33.6844 12.2943 33.6844C12.4275 33.8639 12.555 33.7993 12.7731 33.671C12.7731 33.671 12.7731 33.671 12.7716 33.61L12.79 33.6095C12.9431 33.8495 13.0521 33.7854 13.2872 33.5956L13.2857 33.5345C13.4388 33.7746 13.5663 33.71 13.8212 33.5807L13.8197 33.5196C13.9728 33.7597 14.1002 33.6951 14.3367 33.5663L14.3353 33.5052C14.4883 33.7453 14.6158 33.6807 14.8523 33.5519L14.8508 33.4908C15.0039 33.7309 15.1313 33.6663 15.3862 33.537L15.3848 33.4759C15.5379 33.716 15.6653 33.6514 15.9202 33.5221L15.9188 33.461C16.0718 33.7011 16.1993 33.6364 16.4542 33.5072L16.4527 33.4461C16.6058 33.6862 16.7333 33.6215 16.9697 33.4928L16.9683 33.4317C17.1214 33.6718 17.2488 33.6071 17.5037 33.4778L17.5023 33.4168C17.6553 33.6569 17.7828 33.5922 18.0377 33.4629L18.0362 33.4019C18.1893 33.6419 18.3168 33.5773 18.5717 33.448L18.5702 33.387C18.7233 33.627 18.8507 33.5624 19.1056 33.4331L19.1042 33.3721C19.2572 33.6121 19.3847 33.5475 19.6396 33.4182L19.6381 33.3572C19.7912 33.5972 19.9187 33.5326 20.1736 33.4033L20.1721 33.3422C20.3252 33.5823 20.4526 33.5177 20.7075 33.3884L20.7061 33.3273C20.8592 33.5674 20.9866 33.5028 21.2415 33.3735L21.2401 33.3124C21.3931 33.5525 21.5206 33.4878 21.7755 33.3586L21.774 33.2975C21.9271 33.5376 22.0545 33.4729 22.3094 33.3436L22.308 33.2826C22.4611 33.5227 22.5885 33.458 22.8434 33.3287L22.842 33.2677C22.995 33.5077 23.1225 33.4431 23.3774 33.3138L23.3759 33.2528C23.529 33.4928 23.6565 33.4282 23.9114 33.2989L23.9099 33.2379C24.063 33.4779 24.1904 33.4133 24.4453 33.284L24.4439 33.223C24.5969 33.463 24.7244 33.3984 24.9793 33.2691L24.9779 33.208C25.1309 33.4481 25.2584 33.3835 25.5133 33.2542L25.5118 33.1931C25.6649 33.4332 25.7923 33.3685 26.0472 33.2393L26.0458 33.1782C26.1989 33.4183 26.3263 33.3536 26.5812 33.2244L26.5798 33.1633C26.7328 33.4034 26.8603 33.3387 27.1152 33.2094L27.1137 33.1484C27.2668 33.3885 27.3942 33.3238 27.6491 33.1945L27.6477 33.1335C27.8008 33.3735 27.9282 33.3089 28.1831 33.1796L28.1817 33.1186C28.3347 33.3586 28.4622 33.294 28.7171 33.1647L28.7156 33.1037C28.8687 33.3437 28.9962 33.2791 29.2511 33.1498L29.2496 33.0888C29.4027 33.3288 29.5301 33.2642 29.785 33.1349L29.7836 33.0738C29.9367 33.3139 30.0641 33.2493 30.319 33.12L30.3176 33.0589C30.4706 33.299 30.5981 33.2343 30.853 33.1051L30.8515 33.044C31.0046 33.2841 31.132 33.2194 31.3869 33.0902L31.3855 33.0291C31.5386 33.2692 31.666 33.2045 31.9209 33.0752L31.9195 33.0142C32.0725 33.2543 32.2 33.1896 32.4549 33.0603L32.4534 32.9993C32.6065 33.2393 32.734 33.1747 32.9704 33.0459C32.9704 33.0459 32.9704 33.0459 32.969 32.9849L32.9874 32.9844C33.1405 33.2244 33.2495 33.1603 33.4846 32.9705C33.503 32.97 33.5214 32.9695 33.5214 32.9695C33.6546 33.149 33.782 33.0843 34.0001 32.9561C34.0369 32.9551 34.0553 32.9546 34.0752 33.0151C34.1886 33.1341 34.2976 33.07 34.4973 32.9422C34.5724 33.0012 34.6276 32.9997 34.6644 32.9986C34.7579 33.0571 34.8485 32.9935 34.9944 32.9283C35.1431 32.9853 35.2367 33.0437 35.3273 32.9801C35.3825 32.9786 35.4363 32.916 35.4915 32.9144C35.6786 33.0314 35.8089 33.0888 35.9165 32.9637C35.9349 32.9631 35.9717 32.9621 35.9887 32.9006C36.2125 33.0165 36.3429 33.0739 36.4674 32.8872C36.4858 32.8867 36.5043 32.8862 36.5043 32.8862C36.7465 33.0016 36.8768 33.059 37.0014 32.8723L37.0198 32.8718C37.0198 32.8718 37.0198 32.8718 37.0212 32.9328C37.2819 33.0477 37.3938 33.1057 37.5354 32.8574L37.5368 32.9184C37.7975 33.0333 37.9094 33.0913 38.0693 32.8425L38.0708 32.9035C38.3314 33.0184 38.4434 33.0763 38.6033 32.8275L38.6048 32.8886C38.8654 33.0035 38.9773 33.0614 39.1373 32.8126L39.1387 32.8737C39.3994 32.9886 39.5113 33.0465 39.6712 32.7977L39.6727 32.8588C39.9334 32.9737 40.0453 33.0316 40.2052 32.7828L40.2067 32.8439C40.4673 32.9587 40.5792 33.0167 40.7392 32.7679L40.7406 32.8289C41.0013 32.9438 41.1132 33.0018 41.2732 32.753L41.2746 32.814C41.5353 32.9289 41.6472 32.9869 41.8071 32.7381L41.8086 32.7991C42.0692 32.914 42.1811 32.972 42.3411 32.7232L42.3425 32.7842C42.6032 32.8991 42.7151 32.9571 42.8751 32.7083L42.8765 32.7693C43.1372 32.8842 43.2491 32.9421 43.409 32.6933L43.4105 32.7544C43.6711 32.8693 43.7831 32.9272 43.943 32.6784L43.9445 32.7395C44.2051 32.8544 44.317 32.9123 44.477 32.6635L44.4784 32.7246C44.7391 32.8395 44.851 32.8974 45.011 32.6486L45.0124 32.7097C45.2731 32.8245 45.385 32.8825 45.5449 32.6337L45.5464 32.6947C45.807 32.8096 45.9189 32.8676 46.0789 32.6188L46.0803 32.6798C46.341 32.7947 46.4529 32.8527 46.6129 32.6039L46.6143 32.6649C46.875 32.7798 46.9869 32.8378 47.1468 32.589L47.1483 32.65C47.4089 32.7649 47.5209 32.8229 47.6808 32.5741L47.6822 32.6351C47.9429 32.75 48.0548 32.8079 48.2148 32.5591L48.2162 32.6202C48.4769 32.7351 48.5888 32.793 48.7487 32.5442L48.7502 32.6053C49.0108 32.7202 49.1228 32.7781 49.2827 32.5293L49.2842 32.5904C49.5448 32.7053 49.6567 32.7632 49.8167 32.5144L49.8181 32.5755C50.0788 32.6903 50.1907 32.7483 50.3507 32.4995L50.3521 32.5605C50.6128 32.6754 50.7247 32.7334 50.8846 32.4846L50.8861 32.5456C51.1467 32.6605 51.2586 32.7185 51.4186 32.4697L51.42 32.5307C51.6807 32.6456 51.7926 32.7036 51.9526 32.4548L51.954 32.5158C52.2147 32.6307 52.3266 32.6887 52.4865 32.4399L52.488 32.5009C52.7486 32.6158 52.8606 32.6737 53.0205 32.4249L53.022 32.486C53.2826 32.6009 53.3945 32.6588 53.5361 32.4105L53.5375 32.4716C53.7982 32.5865 53.9101 32.6444 54.07 32.3956L54.0715 32.4567C54.3321 32.5716 54.4441 32.6295 54.604 32.3807L54.6055 32.4418C54.8661 32.5567 54.978 32.6146 55.138 32.3658L55.1394 32.4269C55.4001 32.5417 55.512 32.5997 55.6535 32.3514L55.655 32.4125C55.9156 32.5273 56.0276 32.5853 56.1691 32.337L56.1705 32.3981C56.4312 32.5129 56.5431 32.5709 56.7031 32.3221L56.7045 32.3831C56.9468 32.4986 57.0771 32.556 57.2017 32.3693L57.2201 32.3688C57.2201 32.3688 57.2201 32.3688 57.2215 32.4298C57.4453 32.5457 57.5757 32.6032 57.7002 32.4164C57.7186 32.4159 57.7371 32.4154 57.7371 32.4154C57.9425 32.5318 58.0728 32.5893 58.1804 32.4641C58.1988 32.4636 58.2356 32.4626 58.271 32.4005C58.458 32.5174 58.57 32.5754 58.6776 32.4502C58.7144 32.4492 58.7696 32.4476 58.8234 32.3851C58.9722 32.442 59.0657 32.5005 59.1577 32.4979C59.213 32.4963 59.2866 32.4943 59.3588 32.4312C59.4707 32.4891 59.5458 32.5481 59.6195 32.5461C59.6946 32.6051 59.7852 32.5415 59.9127 32.4768C59.9877 32.5358 60.043 32.5343 60.0982 32.5327C60.1917 32.5912 60.3022 32.5881 60.4466 32.4619C60.5019 32.4604 60.5401 32.5204 60.577 32.5193C60.6903 32.6383 60.7993 32.5742 60.9806 32.447C60.999 32.4465 61.0358 32.4454 61.0557 32.506C61.1889 32.6855 61.2979 32.6214 61.5344 32.4926C61.5528 32.4921 61.5528 32.4921 61.5712 32.4916C61.7045 32.6711 61.8333 32.6675 62.0684 32.4777C62.2215 32.7177 62.3305 32.6536 62.5854 32.5243C62.5854 32.5243 62.5854 32.5243 62.5839 32.4633C62.7385 32.7644 62.8659 32.6998 63.1194 32.5094C63.1194 32.5094 63.1194 32.5094 63.1179 32.4484C63.2724 32.7495 63.3999 32.6848 63.6533 32.4945C63.6533 32.4945 63.6533 32.4945 63.6519 32.4335C63.6717 32.494 63.7086 32.493 63.7284 32.5535C63.6732 32.555 63.6179 32.5566 63.6179 32.5566C63.6548 32.5556 63.6916 32.5545 63.7284 32.5535C63.6916 32.5545 63.6364 32.5561 63.5627 32.5581C63.6179 32.5566 63.6732 32.555 63.7284 32.5535L63.7468 32.553C63.6916 32.5545 63.7284 32.5535 63.8035 32.6125C63.8219 32.612 63.8403 32.6115 63.8772 32.6104C63.6194 32.6176 63.3064 32.6264 63.8786 32.6715C63.897 32.671 63.9154 32.6704 63.9338 32.6699L63.9523 32.6694C63.9523 32.6694 63.9154 32.6704 63.897 32.671L63.8786 32.6715C63.8786 32.6715 63.8786 32.6715 63.897 32.671C63.9707 32.6689 64.0259 32.6674 64.0627 32.6663C64.0075 32.6679 63.9891 32.6684 63.9523 32.6694C63.9707 32.6689 63.9891 32.6684 64.0075 32.6679C64.0811 32.6658 64.1732 32.6632 64.2469 32.6612C64.2653 32.6607 64.2653 32.6607 64.2851 32.7212C64.3035 32.7207 64.3404 32.7197 64.3602 32.7802C64.2129 32.7843 64.1024 32.7874 64.4155 32.7787C64.2682 32.7828 64.9126 32.7648 64.6916 32.7709C64.7653 32.7689 65.3177 32.7535 65.2256 32.756C65.4097 32.7509 65.4466 32.7499 65.2809 32.7545C65.7043 32.7427 65.2809 32.7545 64.7837 32.7684C65.1888 32.7571 65.4834 32.7488 65.244 32.7555C65.2993 32.754 65.2809 32.7545 65.2624 32.755C65.4097 32.7509 65.6859 32.7432 65.5386 32.7473C65.5018 32.7483 65.6491 32.7442 65.8148 32.7396C65.7964 32.7401 65.7596 32.7411 65.6307 32.7447C65.7412 32.7416 65.7228 32.7421 65.6859 32.7432C64.931 32.7643 65.0783 32.7601 65.4451 32.6888C65.2242 32.695 64.9112 32.7037 65.3162 32.6924C65.1689 32.6965 65.04 32.7001 64.9664 32.7022C64.9848 32.7017 65.0032 32.7012 65.0032 32.7012C65.04 32.7001 65.0769 32.6991 65.1321 32.6976C65.261 32.694 65.5924 32.6847 65.5188 32.6868C65.9791 32.6739 66.0726 32.7324 65.8517 32.7385C65.7043 32.7427 65.557 32.7468 65.4282 32.7504C65.5202 32.7478 65.5939 32.7457 65.5755 32.7463C65.3729 32.7519 65.5755 32.7463 65.6675 32.7437L65.6859 32.7432C66.312 32.7257 66.0542 32.7329 65.7964 32.7401C65.8148 32.7396 65.5939 32.7457 65.4664 32.8104C65.3375 32.814 65.2455 32.8166 65.1718 32.8186L65.1534 32.8191C65.1534 32.8191 65.1718 32.8186 65.2086 32.8176C65.2271 32.8171 65.2271 32.8171 65.2455 32.8166C65.2639 32.816 65.2639 32.816 65.2639 32.816C65.3007 32.815 65.3559 32.8135 65.3559 32.8135C65.5032 32.8094 65.6506 32.8052 65.6874 32.8042C65.7625 32.8632 66.0202 32.856 65.7455 32.9248C65.322 32.9366 65.322 32.9366 65.1577 33.0023C65.3603 32.9966 64.7895 33.0125 65.2512 33.0607C64.7541 33.0746 64.0912 33.0931 65.0685 33.1269C65.5841 33.1125 65.3447 33.1192 65.4382 33.1777C65.383 33.1792 65.9538 33.1633 65.6238 33.2336C65.4397 33.2387 65.4949 33.2372 65.6054 33.2341C65.6791 33.232 65.8816 33.2264 65.8802 33.1653C65.9538 33.1633 66.0643 33.1602 66.3022 33.0925C66.7257 33.0806 67.2597 33.0657 66.6138 33.0227C66.8163 33.017 66.5755 32.9627 66.9069 32.9534C67.3304 32.9416 66.5925 32.9011 66.6845 32.8985C66.6845 32.8985 66.1123 32.8534 66.5174 32.8421C67.2723 32.821 66.3502 32.7857 66.8106 32.7728C66.4777 32.7211 66.8629 32.6492 66.8445 32.6497C66.3289 32.6641 66.8799 32.5877 67.0272 32.5835C67.2297 32.5779 66.5102 32.5369 66.6023 32.5343C66.5838 32.5348 66.5838 32.5348 66.5654 32.5354C66.6023 32.5343 66.6561 32.4717 66.7113 32.4702C66.7481 32.4692 66.7849 32.4681 66.7665 32.4687C66.7665 32.4687 66.7665 32.4687 66.7849 32.4681C66.7835 32.4071 66.7835 32.4071 66.7821 32.3461C66.9366 32.6472 67.064 32.5825 67.3175 32.3922C67.2919 32.0875 67.3016 31.7207 67.3312 31.4145C67.4049 31.4124 67.4601 31.4109 67.3312 31.4145C67.3298 31.3534 67.3482 31.3529 67.3468 31.2919C67.402 31.2903 67.4572 31.2888 67.4572 31.2888C67.4388 31.2893 67.402 31.2903 67.3468 31.2919C67.4667 30.1279 67.7538 29.0204 67.4036 28.2361C67.4585 27.4405 67.6148 28.5967 67.8101 28.2859C67.7888 28.1643 67.7491 28.0432 67.7278 27.9217C67.8751 27.9176 68.3723 27.9037 67.9856 27.9145C67.8567 27.9181 67.7647 27.9206 67.7278 27.9217C67.8567 27.9181 68.0777 27.9119 67.7278 27.9217C67.9672 27.915 67.7831 27.9201 67.7278 27.9217C67.7463 27.9212 67.7463 27.9212 67.7278 27.9217C67.6427 27.4354 67.6113 26.8865 67.672 26.3351C67.6904 26.3346 67.7088 26.334 67.7456 26.333C67.672 26.3351 68.077 26.3238 67.6904 26.3346C67.7059 26.212 67.7045 26.1509 67.72 26.0283C67.6619 25.9078 67.6023 25.7262 67.5258 25.6061C67.5442 25.6056 67.5442 25.6056 67.5258 25.6061C67.5059 25.5456 67.4875 25.5461 67.4861 25.4851C67.5966 25.482 67.6334 25.481 67.4677 25.4856C67.3713 25.3051 67.2594 25.2471 67.1164 25.4343C67.098 25.4348 67.098 25.4348 67.0796 25.4354C67.0796 25.4354 67.098 25.4348 67.0796 25.4354C67.0781 25.3743 67.0951 25.3128 67.0936 25.2517C67.4987 25.2404 67.959 25.2276 67.3316 25.184C67.5341 25.1783 67.2933 25.124 67.6247 25.1147C68.0482 25.1029 67.3103 25.0624 67.4023 25.0598C67.4023 25.0598 67.3655 25.0609 67.3287 25.0619C67.3655 25.0609 67.3471 25.0614 67.2919 25.0629C67.2182 25.065 67.1446 25.067 67.1077 25.0681C67.1262 25.0676 67.163 25.0665 67.2366 25.0645C67.9916 25.0434 67.0695 25.0081 67.5298 24.9952C67.1969 24.9434 67.5821 24.8716 67.5637 24.8721C67.0482 24.8865 67.5991 24.81 67.7464 24.8059C67.3638 24.2058 67.106 24.213 66.9388 24.1565C66.9941 24.155 66.9572 24.156 66.8652 24.1586C66.8468 24.1591 66.8468 24.1591 66.8283 24.1596C66.8099 24.1601 66.7915 24.1607 66.8099 24.1601C66.7731 24.1612 66.7363 24.1622 66.6995 24.1632C66.902 24.1576 66.9204 24.1571 66.6626 24.1643C66.8099 24.1601 66.7731 24.1612 66.6442 24.1648C66.7179 24.1627 66.8652 24.1586 66.9374 24.0955C67.0479 24.0924 67.0096 24.0324 66.6597 24.0422C66.6597 24.0422 66.6597 24.0422 66.6583 23.9811C66.6767 23.9806 66.6767 23.9806 66.6583 23.9811L66.6569 23.9201C66.7489 23.9175 66.8211 23.8544 66.8211 23.8544C66.8396 23.8539 66.8396 23.8539 66.858 23.8534C66.9132 23.8518 66.9132 23.8518 66.858 23.8534C67.0421 23.8482 66.9316 23.8513 66.858 23.8534C66.8948 23.8524 66.95 23.8508 67.0421 23.8482C67.3183 23.8405 66.6186 23.8601 67.0421 23.8482C66.9869 23.8498 67.2999 23.8411 67.3183 23.8405C66.9132 23.8518 67.5208 23.8349 67.2064 23.7826C67.3905 23.7774 67.6851 23.7692 67.593 23.7718C67.9061 23.763 67.4273 23.7764 67.5194 23.7738C67.3353 23.779 67.5194 23.7738 67.5746 23.7723C67.188 23.7831 66.967 23.7893 67.1695 23.7836C67.0222 23.7877 67.0038 23.7882 67.0222 23.7877C66.7276 23.7959 66.8934 23.7913 66.746 23.7954C66.7276 23.7959 66.7645 23.7949 66.7092 23.7965C66.6908 23.797 66.6724 23.7975 66.654 23.798C66.7092 23.7965 66.7276 23.7959 66.6908 23.797C66.7829 23.7944 66.7829 23.7944 66.746 23.7954C67.188 23.7831 66.4883 23.8026 66.8565 23.7923C67.1327 23.7846 66.9118 23.7908 66.7276 23.7959C66.7092 23.7965 66.6908 23.797 66.6724 23.7975C66.7276 23.7959 66.746 23.7954 66.7276 23.7959C66.6356 23.7985 66.7092 23.7965 66.746 23.7954C66.7645 23.7949 66.7645 23.7949 66.6724 23.7975C67.1327 23.7846 67.188 23.7831 66.6724 23.7975L66.671 23.7364C66.6894 23.7359 66.7078 23.7354 66.7078 23.7354C66.7446 23.7344 67.6837 23.7082 66.7078 23.7354C66.6894 23.7359 66.671 23.7364 66.671 23.7364C66.7078 23.7354 66.7446 23.7344 66.7814 23.7334C67.2602 23.72 67.3891 23.7164 67.0576 23.7256C67.0208 23.7267 67.1129 23.7241 66.9103 23.7298C67.1681 23.7226 66.9287 23.7292 66.671 23.7364C66.9103 23.7298 66.7078 23.7354 66.7262 23.7349C67.2786 23.7195 67.2786 23.7195 67.1313 23.7236C66.45 23.7426 67.2418 23.7205 67.076 23.7251C67.0024 23.7272 67.076 23.7251 67.0945 23.7246C67.0576 23.7256 66.7998 23.7328 66.671 23.7364C66.7078 23.7354 66.7446 23.7344 66.8183 23.7323C67.1497 23.7231 66.8551 23.7313 66.671 23.7364C66.6894 23.7359 66.7078 23.7354 66.7262 23.7349C66.7998 23.7328 66.7446 23.7344 66.671 23.7364C66.7078 23.7354 66.7446 23.7344 66.763 23.7339C66.8183 23.7323 66.7446 23.7344 66.671 23.7364C66.7446 23.7344 66.8551 23.7313 67.0024 23.7272C67.2233 23.721 66.671 23.7364 66.8367 23.7318C67.0945 23.7246 66.8367 23.7318 66.671 23.7364C66.671 23.7364 66.671 23.7364 66.6695 23.6754C66.7063 23.6744 66.7432 23.6733 66.78 23.6723C66.8352 23.6708 66.9443 23.6066 66.889 23.6082C66.4655 23.62 67.219 23.5379 66.906 23.5466C66.7955 23.5497 67.1454 23.54 67.219 23.5379C67.2374 23.5374 66.9428 23.5456 67.2006 23.5384C67.4768 23.5307 67.0901 23.5415 67.3295 23.5348C67.219 23.5379 67.2374 23.5374 67.4031 23.5328C67.4031 23.5328 67.8082 23.5214 67.3663 23.5338C67.1822 23.5389 67.6241 23.5266 67.1085 23.541C66.7771 23.5502 66.906 23.5466 66.9797 23.5446C67.3479 23.5343 67.4584 23.5312 67.4768 23.5307C67.4031 23.5328 67.219 23.5379 67.0533 23.5425C67.0901 23.5415 66.9797 23.5446 66.7403 23.5513C66.7403 23.5513 66.7403 23.5513 66.7219 23.5518C66.7403 23.5513 66.7219 23.5518 66.7035 23.5523C66.7403 23.5513 66.7955 23.5497 66.9428 23.5456C66.8323 23.5487 66.7587 23.5507 66.7035 23.5523C67.3479 23.5343 67.1822 23.5389 66.7955 23.5497C66.7587 23.5507 66.7219 23.5518 66.7035 23.5523C66.8323 23.5487 66.9797 23.5446 67.0165 23.5435C67.1454 23.54 67.4216 23.5322 67.3295 23.5348C67.0165 23.5435 67.6241 23.5266 67.6241 23.5266C67.4952 23.5302 67.1085 23.541 67.1454 23.54C66.9981 23.5441 66.8139 23.5492 66.7035 23.5523C66.7219 23.5518 66.7587 23.5507 66.8139 23.5492C66.7771 23.5502 66.7403 23.5513 66.7035 23.5523C66.7219 23.5518 66.7587 23.5507 66.8139 23.5492C67.0901 23.5415 66.8139 23.5492 66.7035 23.5523C66.9612 23.5451 66.8139 23.5492 66.7035 23.5523C66.7219 23.5518 66.7219 23.5518 66.7035 23.5523C66.8876 23.5471 67.0349 23.543 66.9981 23.5441C66.8876 23.5471 66.5746 23.5559 67.0717 23.542C66.7587 23.5507 66.6298 23.5543 66.906 23.5466C66.8323 23.5487 66.7587 23.5507 66.7035 23.5523C66.702 23.4912 66.702 23.4912 66.719 23.4297C66.7558 23.4287 66.8111 23.4271 66.8479 23.4261C66.8295 23.4266 67.2161 23.4158 66.7742 23.4281C67.1241 23.4184 66.9031 23.4245 66.7742 23.4281C66.7558 23.4287 66.7374 23.4292 66.719 23.4297C66.7558 23.4287 66.8663 23.4256 67.0688 23.4199C67.566 23.406 67.3634 23.4117 67.0504 23.4204C67.2345 23.4153 67.2714 23.4143 66.9031 23.4245C66.8295 23.4266 66.7742 23.4281 66.719 23.4297C66.7742 23.4281 66.9031 23.4245 67.1609 23.4173C67.3082 23.4132 67.0872 23.4194 66.719 23.4297C66.7742 23.4281 66.7926 23.4276 66.7742 23.4281C66.9952 23.422 66.9215 23.424 66.719 23.4297C66.8663 23.4256 66.9584 23.423 66.719 23.4297C66.9031 23.4245 67.0872 23.4194 66.8847 23.4251C67.2714 23.4143 67.5844 23.4055 66.9215 23.424C66.8663 23.4256 67.2898 23.4138 66.7374 23.4292C66.736 23.3681 66.7345 23.3071 66.7529 23.3066C67.0291 23.2989 66.532 23.3127 67.066 23.2978C67.4894 23.286 66.7161 23.3076 66.9371 23.3014C67.1948 23.2942 66.4583 23.3148 66.9172 23.2409C66.6226 23.2491 66.8804 23.2419 67.0815 23.1752C67.1551 23.1732 67.1735 23.1727 66.7501 23.1845C67.284 23.1696 67.0078 23.1773 66.7501 23.1845C66.8789 23.1809 66.971 23.1783 66.7501 23.1845C66.7486 23.1234 66.7486 23.1234 66.7472 23.0624C66.784 23.0614 66.8576 23.0593 66.9681 23.0562C67.2627 23.048 66.9313 23.0573 66.7472 23.0624L66.7457 23.0014C66.9114 22.9967 66.9851 22.9947 66.8194 22.9993C66.7826 23.0003 66.7641 23.0008 66.7457 23.0014C66.9667 22.9952 67.5559 22.9787 66.9483 22.9957C66.7826 23.0003 67.1324 22.9906 66.7457 23.0014C66.801 22.9998 66.8378 22.9988 66.7457 23.0014L66.7443 22.9403C66.7995 22.9388 66.7995 22.9388 66.7443 22.9403L66.7428 22.8793C66.9638 22.8731 66.9086 22.8746 66.7428 22.8793L66.7414 22.8182C66.8151 22.8162 66.9439 22.8126 67.0728 22.809C66.8703 22.8146 67.5884 22.7946 66.9992 22.811C68.2513 22.7761 66.9992 22.811 67.4779 22.7977C66.9808 22.8115 68.196 22.7776 67.2017 22.8054C67.6436 22.793 66.8887 22.8141 67.4411 22.7987C68.0303 22.7822 66.8519 22.8151 67.4043 22.7997C67.1281 22.8074 67.4779 22.7977 67.0913 22.8085C67.2754 22.8033 66.8519 22.8151 66.9992 22.811C67.036 22.81 66.8703 22.8146 66.7414 22.8182C66.7598 22.8177 66.7598 22.8177 66.7782 22.8172C66.7598 22.8177 66.7598 22.8177 66.7414 22.8182C66.7414 22.8182 66.7414 22.8182 66.74 22.7572C66.8136 22.7551 66.8689 22.7536 66.9057 22.7526C67.1635 22.7454 66.7031 22.7582 66.7952 22.7556C66.9241 22.752 66.832 22.7546 66.74 22.7572L66.7584 22.7567L66.74 22.7572C66.7385 22.6961 66.7371 22.6351 66.7541 22.5735C66.8093 22.572 66.8277 22.5715 66.7541 22.5735C66.9198 22.5689 67.1591 22.5622 67.1039 22.5638C67.6747 22.5478 67.1223 22.5633 66.7541 22.5735L66.7526 22.5125C66.9736 22.5063 67.1209 22.5022 66.7526 22.5125C67.3971 22.4945 67.0472 22.5043 66.7526 22.5125C66.7526 22.5125 66.7526 22.5125 66.7512 22.4515C66.788 22.4504 66.8064 22.4499 66.8432 22.4489C66.8064 22.4499 67.635 22.4268 66.9154 22.3858C66.8602 22.3873 66.805 22.3889 66.7681 22.3899L66.7667 22.3289C66.8219 22.3273 66.8588 22.3263 66.8588 22.3263C66.6931 22.3309 66.8772 22.3258 66.9324 22.3242C67.0061 22.3222 66.8772 22.3258 66.7667 22.3289C66.7667 22.3289 66.7667 22.3289 66.7653 22.2678C66.8021 22.2668 66.8389 22.2658 66.8757 22.2647C67.4097 22.2498 66.9494 22.2627 67.1519 22.257C67.465 22.2483 66.9678 22.2622 66.9678 22.2622C66.8757 22.2647 66.8205 22.2663 66.7653 22.2678C66.7653 22.2678 66.7653 22.2678 66.7638 22.2068C66.8191 22.2052 66.8743 22.2037 66.948 22.2016C67.7581 22.179 66.8544 22.1432 66.8913 22.1421C66.836 22.1437 66.7992 22.1447 66.7624 22.1457C66.9097 22.1416 67.3332 22.1298 67.1306 22.1354C66.8729 22.1426 67.7935 22.1169 66.9649 22.1401C66.9097 22.1416 66.836 22.1437 66.7624 22.1457C66.7609 22.0847 66.7609 22.0847 66.7595 22.0236C66.9252 22.019 67.1093 22.0139 66.9989 22.017C67.2751 22.0093 67.6617 21.9985 67.4224 22.0051C67.717 21.9969 66.3728 22.0344 66.9989 22.017C67.0909 22.0144 67.8459 21.9933 67.0173 22.0164C66.9068 22.0195 66.8147 22.0221 66.7595 22.0236C67.0541 22.0154 66.8516 22.0211 66.7595 22.0236C66.962 22.018 66.8884 22.02 66.7595 22.0236C66.7581 21.9626 66.7581 21.9626 66.7566 21.9016C66.8487 21.899 66.9039 21.8974 66.8119 21.9C66.8487 21.899 67.2169 21.8887 66.7566 21.9016C67.1065 21.8918 66.9592 21.8959 66.7566 21.9016C67.1249 21.8913 66.7934 21.9005 66.7566 21.9016C66.7566 21.9016 66.7934 21.9005 66.8303 21.8995C66.7934 21.9005 66.775 21.901 66.7566 21.9016C66.7566 21.9016 66.7566 21.9016 66.7552 21.8405C66.8472 21.8379 66.9393 21.8354 67.0682 21.8318C66.9393 21.8354 66.8472 21.8379 66.7552 21.8405C66.7537 21.7795 66.7537 21.7795 66.7523 21.7184C67.1574 21.7071 66.9548 21.7128 66.7891 21.7174C66.8259 21.7164 66.8444 21.7159 66.7523 21.7184C66.8812 21.7148 67.0469 21.7102 66.9733 21.7123C66.8628 21.7153 66.8075 21.7169 66.7523 21.7184C66.7891 21.7174 66.8259 21.7164 66.918 21.7138C67.2863 21.7035 66.6786 21.7205 66.918 21.7138C67.1206 21.7081 67.3415 21.702 66.9364 21.7133C67.0653 21.7097 67.1758 21.7066 67.1574 21.7071C66.6971 21.72 66.9548 21.7128 67.1206 21.7081C66.4945 21.7256 67.544 21.6963 67.1375 21.6466C67.3585 21.6404 66.9534 21.6517 66.9718 21.6512C66.9534 21.6517 66.9718 21.6512 66.7509 21.6574C66.8982 21.6533 66.9166 21.6528 66.7509 21.6574C66.8613 21.6543 66.9166 21.6528 66.7509 21.6574L66.7494 21.5963C66.952 21.5907 67.044 21.5881 66.7494 21.5963C67.3939 21.5784 66.9888 21.5897 67.1545 21.585C67.2097 21.5835 67.3386 21.5799 67.1913 21.584C67.044 21.5881 66.8599 21.5933 66.7494 21.5963C66.748 21.5353 66.7635 21.4127 66.7621 21.3517C66.9094 21.3475 67.0935 21.3424 66.9462 21.3465C66.5595 21.3573 67.204 21.3393 66.8357 21.3496C66.8357 21.3496 67.3144 21.3362 66.8725 21.3486C66.8357 21.3496 66.7989 21.3506 66.7437 21.3522C66.7422 21.2911 66.7408 21.2301 66.7577 21.1685C66.7946 21.1675 66.7946 21.1675 66.7577 21.1685C67.0892 21.1593 66.7762 21.168 66.813 21.167C66.7946 21.1675 66.7762 21.168 66.7577 21.1685C66.7946 21.1675 66.7946 21.1675 66.7577 21.1685C66.7577 21.1685 66.7577 21.1685 66.7563 21.1075C66.8115 21.1059 66.8484 21.1049 66.7563 21.1075C66.7931 21.1065 66.83 21.1054 66.7931 21.1065C67.0141 21.1003 66.83 21.1054 66.7563 21.1075C66.7747 21.107 66.8115 21.1059 66.8668 21.1044C66.83 21.1054 66.7931 21.1065 66.7563 21.1075C66.8852 21.1039 67.0141 21.1003 66.7747 21.107C67.143 21.0967 66.5353 21.1137 66.8668 21.1044C66.83 21.1054 66.7931 21.1065 66.7379 21.108C66.7563 21.1075 66.7747 21.107 66.7931 21.1065C66.7747 21.107 66.7563 21.1075 66.7379 21.108C66.8852 21.1039 67.1061 21.0977 67.0693 21.0987C67.3823 21.09 67.3455 21.091 67.0693 21.0987C67.0877 21.0982 67.0141 21.1003 66.8484 21.1049C67.0141 21.1003 67.1061 21.0977 66.9957 21.1008C66.7379 21.108 67.456 21.088 67.0693 21.0987C67.1798 21.0957 67.2719 21.0931 67.235 21.0941C67.4192 21.089 67.6401 21.0828 67.5665 21.0849C67.5849 21.0844 67.7506 21.0797 67.3455 21.091C67.5665 21.0849 66.8115 21.1059 67.6033 21.0838C67.4007 21.0895 67.4376 21.0885 67.7322 21.0802C67.6954 21.0813 68.4871 21.0592 68.0452 21.0715C67.1061 21.0977 68.4503 21.0602 67.7874 21.0787C68.082 21.0705 67.7506 21.0797 67.7506 21.0797C67.3087 21.0921 67.6585 21.0823 67.769 21.0792C67.7138 21.0808 67.99 21.073 67.4376 21.0885C66.7563 21.1075 67.5296 21.0859 67.4192 21.089C67.9163 21.0751 67.235 21.0941 67.1246 21.0972C66.922 21.1029 67.3087 21.0921 66.9404 21.1023C66.8668 21.1044 66.8115 21.1059 66.7747 21.107C66.8115 21.1059 66.8115 21.1059 66.7747 21.107C67.4376 21.0885 67.0693 21.0987 66.7747 21.107C66.8484 21.1049 66.9588 21.1018 67.1061 21.0977C66.3696 21.1183 67.2166 21.0946 66.7747 21.107C66.7563 21.1075 66.7747 21.107 66.7563 21.1075C66.8484 21.1049 66.83 21.1054 66.7563 21.1075C66.7563 21.1075 66.7563 21.1075 66.7549 21.0464C67.1599 21.0351 67.1231 21.0362 66.7549 21.0464C66.8285 21.0444 67.6755 21.0207 66.7549 21.0464C66.7534 20.9854 66.7704 20.9238 66.7675 20.8018C66.9885 20.7956 66.9516 20.7966 66.8043 20.8007C66.7859 20.8012 66.7859 20.8012 66.7675 20.8018C66.7859 20.8012 66.8043 20.8007 66.7675 20.8018C66.7661 20.7407 66.7816 20.6181 66.7802 20.5571C67.0564 20.5494 67.0748 20.5488 66.7802 20.5571C66.8722 20.5545 67.0195 20.5504 66.9827 20.5514C67.1484 20.5468 67.8113 20.5283 67.2773 20.5432C66.817 20.556 67.9218 20.5252 67.2957 20.5427C67.5903 20.5345 67.0011 20.5509 66.9827 20.5514C67.0011 20.5509 66.7802 20.5571 66.8538 20.555C67.13 20.5473 67.6456 20.5329 67.0011 20.5509C66.9827 20.5514 66.8538 20.555 66.7802 20.5571L66.7986 20.5566C66.9827 20.5514 66.909 20.5535 66.7802 20.5571C66.909 20.5535 67.0011 20.5509 66.7802 20.5571C67.1116 20.5478 67.0011 20.5509 66.7986 20.5566L66.7802 20.5571C66.7986 20.5566 66.8354 20.5555 66.8906 20.554C66.5776 20.5627 67.7008 20.5314 67.0379 20.5499C66.9275 20.553 66.8538 20.555 66.7802 20.5571L66.7787 20.496C67.0181 20.4893 67.1101 20.4868 66.7787 20.496C66.9628 20.4909 67.0365 20.4888 66.7787 20.496C66.7971 20.4955 66.7971 20.4955 66.7787 20.496C66.8155 20.495 66.8155 20.495 66.7787 20.496C66.834 20.4945 66.8524 20.494 66.7787 20.496C66.7787 20.496 66.7787 20.496 66.7773 20.435C66.7957 20.4345 66.7957 20.4345 66.7773 20.435C66.7758 20.3739 66.7758 20.3739 66.7744 20.3129C66.8112 20.3119 66.8296 20.3114 66.8665 20.3103C66.8296 20.3114 66.8112 20.3119 66.7744 20.3129L66.773 20.2519C66.9387 20.2472 67.1044 20.2426 66.865 20.2493C66.8282 20.2503 66.8098 20.2508 66.773 20.2519L66.7715 20.1908C66.9188 20.1867 66.8452 20.1888 66.7715 20.1908C66.9803 18.1082 66.9803 18.1082 66.9789 18.0471C67.3655 18.0363 67.6417 18.0286 66.9774 17.9861C67.1247 17.982 67.272 17.9778 67.1063 17.9825C67.0327 17.9845 66.9958 17.9856 66.9774 17.9861C66.9958 17.9856 67.0327 17.9845 67.0511 17.984C67.0142 17.985 66.9958 17.9856 66.9774 17.9861C66.976 17.925 66.976 17.925 66.9745 17.864C67.0482 17.8619 67.085 17.8609 67.0298 17.8624C67.1403 17.8594 67.2876 17.8552 66.9745 17.864C67.4717 17.8501 67.1218 17.8599 66.9745 17.864C67.3612 17.8532 67.1403 17.8594 66.9745 17.864C67.1587 17.8588 67.398 17.8522 67.1587 17.8588C67.0666 17.8614 67.0114 17.863 66.9745 17.864C67.085 17.8609 67.2323 17.8568 67.3612 17.8532C67.2876 17.8552 67.8215 17.8403 67.2507 17.8563C67.7295 17.8429 67.2139 17.8573 67.8952 17.8383C67.8215 17.8403 68.3187 17.8265 67.6742 17.8445C67.5822 17.847 67.1955 17.8578 67.2691 17.8558C67.3428 17.8537 66.7168 17.8712 67.306 17.8547C67.1587 17.8588 67.1771 17.8583 67.0482 17.8619C67.4533 17.8506 67.085 17.8609 67.0666 17.8614C67.398 17.8522 67.2139 17.8573 66.993 17.8635C67.0114 17.863 67.0114 17.863 67.0298 17.8624C67.0114 17.863 67.0114 17.863 66.993 17.8635C67.4164 17.8516 67.2139 17.8573 66.993 17.8635C66.9915 17.8024 67.0085 17.7409 67.0056 17.6188C67.3554 17.609 67.2081 17.6131 67.0056 17.6188C67.0056 17.6188 67.0056 17.6188 67.0042 17.5577C67.1146 17.5547 67.0594 17.5562 67.0042 17.5577C67.0226 17.5572 67.041 17.5567 67.0594 17.5562C67.6486 17.5398 67.4092 17.5464 67.041 17.5567C67.2435 17.5511 67.0594 17.5562 67.354 17.548C67.6302 17.5403 67.1883 17.5526 67.0042 17.5577C67.0226 17.5572 67.041 17.5567 67.0594 17.5562C67.5197 17.5433 67.2435 17.5511 67.0042 17.5577C67.0027 17.4967 67.0027 17.4967 67.0013 17.4357C67.1486 17.4315 67.2591 17.4285 67.1486 17.4315C67.0933 17.4331 67.0381 17.4346 67.0013 17.4357C67.0565 17.4341 67.1118 17.4326 67.167 17.431C67.0381 17.4346 66.946 17.4372 67.4432 17.4233C67.2959 17.4274 67.5352 17.4207 67.0933 17.4331C67.9403 17.4094 67.5905 17.4192 67.1302 17.4321C67.4432 17.4233 67.1118 17.4326 67.0013 17.4357C67.0197 17.4351 67.0565 17.4341 67.0749 17.4336C67.0565 17.4341 67.0381 17.4346 67.0013 17.4357C67.0749 17.4336 67.1486 17.4315 67.2038 17.43C68.1797 17.4028 67.2591 17.4285 67.6641 17.4171C67.701 17.4161 67.6641 17.4171 67.6273 17.4182C67.4064 17.4243 66.7619 17.4423 67.5721 17.4197C67.3511 17.4259 67.6457 17.4177 67.2038 17.43C67.1118 17.4326 67.0565 17.4341 67.0197 17.4351L67.0182 17.3741C67.3497 17.3648 67.1656 17.37 67.0182 17.3741L67.0168 17.3131C67.0168 17.3131 67.0352 17.3125 67.0168 17.3131C67.0154 17.252 67.0154 17.252 67.0323 17.1905C67.0692 17.1894 67.106 17.1884 67.0323 17.1905C67.0479 17.0679 67.0464 17.0068 67.062 16.8842C67.2461 16.8791 67.3013 16.8775 67.3197 16.877C67.7985 16.8637 67.154 16.8816 67.3013 16.8775C66.8226 16.8909 67.4855 16.8724 67.062 16.8842C67.1172 16.8827 67.0988 16.8832 67.062 16.8842C67.1172 16.8827 67.1724 16.8811 67.2461 16.8791C67.2829 16.878 67.1724 16.8811 67.062 16.8842C67.5959 16.8693 67.9089 16.8606 67.3566 16.876C66.9331 16.8878 67.5591 16.8703 67.1172 16.8827C67.2277 16.8796 67.154 16.8816 67.062 16.8842C67.062 16.8842 67.062 16.8842 67.0605 16.8232C67.3367 16.8155 67.4656 16.8119 67.0605 16.8232C67.3735 16.8144 67.3367 16.8155 67.1342 16.8211C67.1342 16.8211 67.3367 16.8155 67.0605 16.8232C67.171 16.8201 67.3551 16.8149 67.0605 16.8232C67.1158 16.8216 67.171 16.8201 67.1894 16.8196C67.7602 16.8036 66.8396 16.8293 67.2446 16.818C67.5393 16.8098 67.392 16.8139 67.1526 16.8206C67.1158 16.8216 67.0973 16.8221 67.0789 16.8227C67.2262 16.8185 67.3367 16.8155 67.0789 16.8227C67.3183 16.816 66.95 16.8263 67.1526 16.8206C67.171 16.8201 67.1342 16.8211 67.0789 16.8227C67.1158 16.8216 67.1526 16.8206 67.2078 16.8191C66.9685 16.8257 67.6313 16.8072 67.0789 16.8227L67.0775 16.7616C67.28 16.756 67.4457 16.7513 67.1327 16.7601C67.0959 16.7611 67.28 16.756 67.0775 16.7616C67.0959 16.7611 67.1143 16.7606 67.1327 16.7601C67.1327 16.7601 67.0959 16.7611 67.0775 16.7616C67.1327 16.7601 67.188 16.7585 67.28 16.756C67.7035 16.7441 67.6483 16.7457 67.5194 16.7493C67.2432 16.757 67.5194 16.7493 67.3721 16.7534C67.5194 16.7493 67.5378 16.7488 67.3905 16.7529C67.4443 16.6903 67.4981 16.6277 67.549 16.443C67.5674 16.4425 67.5674 16.4425 67.549 16.443C67.6595 16.4399 67.6043 16.4415 67.549 16.443C67.5858 16.442 67.6411 16.4405 67.6963 16.4389C67.9725 16.4312 67.2728 16.4507 67.6963 16.4389C67.6411 16.4405 67.9541 16.4317 67.9725 16.4312C67.6224 15.6469 68.2116 15.6305 67.8985 15.6392C68.0827 15.6341 68.3773 15.6258 68.2852 15.6284C68.5982 15.6197 68.1195 15.633 68.2116 15.6305C68.0274 15.6356 68.2116 15.6305 68.2668 15.6289C67.8801 15.6397 67.6592 15.6459 67.8617 15.6402C67.7144 15.6443 67.696 15.6449 67.7144 15.6443C67.6776 15.6454 67.6408 15.6464 67.6039 15.6474L67.6209 15.5859C67.6761 15.5843 67.6577 15.5848 67.6209 15.5859C67.7314 15.5828 67.7498 15.5823 67.6209 15.5859C67.6549 15.4628 67.6888 15.3396 67.7227 15.2165C67.683 15.0955 67.6264 15.036 67.5866 14.9149C67.6051 14.9144 67.6235 14.9139 67.6419 14.9134C67.7892 14.9092 67.7708 14.9098 67.5866 14.9149C67.5866 14.9149 67.5866 14.9149 67.5682 14.9154C67.9549 14.9046 67.8444 14.9077 67.5682 14.9154C67.5285 14.7944 67.4903 14.7343 67.469 14.6128C67.4874 14.6123 67.5242 14.6112 67.5426 14.6107C67.5242 14.6112 67.9109 14.6004 67.469 14.6128C67.8188 14.603 67.5794 14.6097 67.4506 14.6133C67.5058 14.6117 67.5979 14.6092 67.7636 14.6045C68.408 14.5866 67.8925 14.601 67.4506 14.6133L67.4307 14.5528C67.6701 14.5461 67.6148 14.5476 67.4307 14.5528C67.4108 14.4922 67.3896 14.3707 67.3697 14.3101C67.5538 14.305 67.6275 14.3029 67.3697 14.3101C67.3484 14.1886 67.3271 14.067 67.3058 13.9454C67.3426 13.9444 67.3426 13.9444 67.3058 13.9454C67.3058 13.9454 67.3058 13.9454 67.3044 13.8844C67.3596 13.8828 67.3596 13.8828 67.3044 13.8844C67.3029 13.8233 67.3029 13.8233 67.2831 13.7628C67.3567 13.7607 67.3751 13.7602 67.3015 13.7623L67.2831 13.7628C67.3567 13.7607 67.6697 13.752 67.4856 13.7571C67.8355 13.7474 67.504 13.7566 67.2831 13.7628C67.2517 13.2139 67.2261 12.9092 67.2189 12.604C67.216 12.4819 67.2131 12.3598 67.2102 12.2378C67.2839 12.2357 67.2839 12.2357 67.2102 12.2378C67.2088 12.1767 67.2074 12.1157 67.2229 11.9931C67.3702 11.989 67.3334 11.99 67.2229 11.9931C67.2214 11.932 67.22 11.871 67.22 11.871C67.3305 11.8679 67.3673 11.8669 67.22 11.871C67.2326 11.6263 67.2439 11.3206 67.2565 11.0759C67.367 11.0728 67.4222 11.0713 67.3486 11.0733C67.3854 11.0723 67.3302 11.0738 67.2565 11.0759L67.2551 11.0148C67.2919 11.0138 67.3103 11.0133 67.3287 11.0128C67.476 11.0087 67.384 11.0112 67.2735 11.0143C67.5681 11.0061 67.5681 11.0061 67.2735 11.0143C67.272 10.9533 67.272 10.9533 67.289 10.8917C67.3074 10.8912 67.3258 10.8907 67.3258 10.8907C67.3074 10.8912 67.289 10.8917 67.289 10.8917C67.2876 10.8307 67.2861 10.7696 67.3045 10.7691C67.3598 10.7676 67.3598 10.7676 67.3045 10.7691C67.3031 10.7081 67.3031 10.7081 67.3017 10.647C68.0566 10.626 67.3017 10.647 67.7436 10.6347C67.4305 10.6434 68.5537 10.6121 67.8909 10.6306C67.5963 10.6388 67.4121 10.644 67.3017 10.647L67.3002 10.586C67.7605 10.5732 68.2393 10.5598 67.2988 10.525C67.3908 10.5224 67.3724 10.5229 67.2988 10.525L67.2973 10.4639C67.9234 10.4464 67.5551 10.4567 67.2973 10.4639C67.2973 10.4639 67.2973 10.4639 67.3157 10.4634C67.3157 10.4634 67.3157 10.4634 67.2973 10.4639C67.2959 10.4029 67.2959 10.4029 67.2945 10.3418C67.4418 10.3377 67.5154 10.3357 67.2945 10.3418C67.4602 10.3372 67.4049 10.3387 67.2945 10.3418C67.3071 10.0971 67.3183 9.79142 67.331 9.54673C67.3678 9.54571 67.3862 9.54519 67.331 9.54673C67.3393 9.11892 67.3292 8.69162 67.3007 8.26483C67.2736 7.89909 67.2098 7.53438 67.1091 7.17069C67.1076 7.10965 67.1246 7.04809 67.1231 6.98705C67.5466 6.97522 67.3625 6.98036 67.1217 6.926C67.1203 6.86496 67.1387 6.86445 67.1372 6.8034C67.6528 6.78901 67.7264 6.78695 67.1358 6.74236C67.1358 6.74236 67.1344 6.68132 67.1528 6.6808C67.3185 6.67618 67.2817 6.6772 67.1528 6.6808C67.3788 5.33066 67.9695 5.37525 68.1234 4.08821C67.9285 2.07791 67.4184 1.5424 66.9483 1.92203C66.7783 1.74353 66.5941 1.74867 66.4129 1.8759C66.2443 1.75844 66.0602 1.76358 65.8789 1.89081C65.7103 1.77335 65.5262 1.77849 65.3634 1.90521C65.1948 1.78775 65.0106 1.79289 64.8478 1.9196C64.8095 1.85959 64.7727 1.86062 64.7359 1.86165L64.7114 0.823918C64.6377 0.825975 64.5655 0.889075 64.4933 0.952174C64.3063 0.83523 64.1406 0.839858 63.9792 1.02761C63.7922 0.91067 63.6081 0.915812 63.4467 1.10357C63.2597 0.986624 63.094 0.991252 62.9326 1.17901C62.7456 1.06206 62.5614 1.06721 62.4 1.25496C62.213 1.13802 62.0289 1.14316 61.8859 1.3304C61.6989 1.21346 61.5332 1.21809 61.3718 1.40584C61.2003 1.1663 61.0346 1.17093 60.8718 1.29764C60.7032 1.18018 60.5191 1.18532 60.3746 1.31152C60.1876 1.19458 60.0219 1.19921 59.8591 1.32592C59.6721 1.20898 59.5063 1.2136 59.3435 1.34032C59.1565 1.22337 58.9908 1.228 58.828 1.35471C58.6409 1.23777 58.4752 1.2424 58.3124 1.36911C58.1254 1.25217 57.9413 1.25731 57.7784 1.38402C57.5914 1.26708 57.4257 1.27171 57.2629 1.39842C57.0759 1.28148 56.9101 1.2861 56.7473 1.41282C56.5787 1.29536 56.3946 1.3005 56.2502 1.4267C56.2318 1.42721 56.2318 1.42721 56.2133 1.42773C56.0632 1.30976 55.8974 1.31438 55.77 1.37903C55.7332 1.38005 55.6963 1.38108 55.6411 1.38263C55.5108 1.32518 55.3819 1.32878 55.2729 1.39291C55.1992 1.39497 55.144 1.39651 55.0703 1.39856C54.9768 1.34009 54.8847 1.34266 54.7941 1.40628C54.7006 1.34781 54.5901 1.35089 54.4995 1.4145C54.4443 1.41605 54.3706 1.4181 54.3154 1.41965C54.1851 1.3622 54.0562 1.3658 53.9287 1.43044C53.8919 1.43147 53.8551 1.4325 53.8182 1.43353C53.6681 1.31556 53.5023 1.32018 53.3395 1.4469L53.3211 1.44741C53.1525 1.32995 52.9868 1.33458 52.8041 1.40077C52.6341 1.22227 52.4499 1.22741 52.2871 1.35412C52.1171 1.17562 51.9329 1.18076 51.7517 1.30799C51.5816 1.12949 51.3975 1.13463 51.2347 1.26134C51.0647 1.08284 50.8805 1.08798 50.6993 1.21521C50.5292 1.03671 50.3451 1.04185 50.1639 1.16908C49.9938 0.990579 49.8097 0.995721 49.6285 1.12295C49.4584 0.944448 49.2743 0.94959 49.1115 1.0763C48.9414 0.897802 48.7573 0.902944 48.576 1.03017C48.406 0.85167 48.2035 0.857326 48.0222 0.984554C47.8522 0.806053 47.6511 0.872752 47.4698 0.99998C47.3012 0.882521 47.1171 0.887663 46.9543 1.01438C46.7857 0.896919 46.6016 0.90206 46.4203 1.02929C46.2517 0.91183 46.0676 0.916972 45.9048 1.04369C45.7362 0.926227 45.552 0.931369 45.3892 1.05808C45.2206 0.940624 45.0365 0.945766 44.8736 1.07248C44.705 0.955021 44.5209 0.960163 44.3397 1.08739C44.1711 0.969933 43.9869 0.975075 43.8241 1.10179C43.6555 0.98433 43.4714 0.989472 43.3085 1.11619C43.14 0.998727 42.9558 1.00387 42.7746 1.1311C42.606 1.01364 42.4219 1.01878 42.259 1.14549C42.0904 1.02804 41.9063 1.03318 41.7251 1.1604C41.5565 1.04295 41.3723 1.04809 41.2095 1.1748C41.0409 1.05734 40.8568 1.06249 40.6755 1.18971C40.5069 1.07226 40.3228 1.0774 40.16 1.20411C39.9914 1.08665 39.8072 1.09179 39.6444 1.21851C39.4758 1.10105 39.2917 1.10619 39.1289 1.2329C38.9603 1.11545 38.7761 1.12059 38.6133 1.2473C38.4447 1.12984 38.2606 1.13499 38.0977 1.2617C37.9291 1.14424 37.745 1.14938 37.5822 1.2761C37.4136 1.15864 37.2479 1.16327 37.085 1.28998C37.0666 1.29049 37.0666 1.29049 37.0482 1.29101C36.898 1.17304 36.7323 1.17766 36.5879 1.30386C36.5695 1.30438 36.5326 1.3054 36.5142 1.30592C36.3825 1.18743 36.2352 1.19155 36.0907 1.31774C36.0539 1.31877 36.0171 1.3198 35.9803 1.32083C35.8499 1.26339 35.721 1.26699 35.5936 1.33163C35.5384 1.33317 35.4831 1.33471 35.4279 1.33626C35.316 1.2783 35.2055 1.28138 35.078 1.34603C35.0044 1.34808 34.9491 1.34962 34.8755 1.35168C34.782 1.29321 34.6715 1.29629 34.5809 1.35991C34.5072 1.36196 34.4152 1.36454 34.3415 1.36659C34.248 1.30812 34.156 1.31069 34.0837 1.37379C33.9917 1.37636 33.8996 1.37893 33.826 1.38099C33.7509 1.322 33.6772 1.32406 33.5866 1.38767C33.4747 1.32972 33.3826 1.33229 33.292 1.3959C33.2184 1.39796 33.1631 1.3995 33.0895 1.40156C32.9775 1.3436 32.8487 1.3472 32.7396 1.41133C32.6844 1.41287 32.6291 1.41441 32.5739 1.41595C32.4436 1.35851 32.3147 1.36211 32.1872 1.42675C32.1504 1.42778 32.1136 1.42881 32.0768 1.42984C31.928 1.37291 31.7807 1.37702 31.6533 1.44166C31.6348 1.44218 31.598 1.44321 31.5796 1.44372C31.411 1.32626 31.2637 1.33038 31.1193 1.45657C31.1009 1.45709 31.1009 1.45709 31.0825 1.4576C30.9139 1.34014 30.7297 1.34529 30.5853 1.47149C30.3983 1.35454 30.2326 1.35917 30.0698 1.48588C29.8828 1.36894 29.717 1.37357 29.5542 1.50028C29.3672 1.38334 29.2015 1.38796 29.0386 1.51468C28.8516 1.39773 28.6859 1.40236 28.5231 1.52907C28.3361 1.41213 28.1704 1.41676 28.0075 1.54347C27.8205 1.42653 27.6548 1.43116 27.492 1.55787C27.305 1.44092 27.1208 1.44607 26.958 1.57278C26.771 1.45584 26.6053 1.46046 26.4425 1.58718C26.2554 1.47023 26.0897 1.47486 25.9085 1.60209C25.7215 1.48514 25.5557 1.48977 25.3929 1.61649C25.2059 1.49954 25.0402 1.50417 24.859 1.6314C24.6719 1.51445 24.5062 1.51908 24.3434 1.64579C24.1564 1.52885 23.9907 1.53348 23.8278 1.66019C23.6408 1.54325 23.4567 1.54839 23.2939 1.6751C23.1069 1.55816 22.9411 1.56279 22.7783 1.6895C22.5913 1.57256 22.4256 1.57718 22.2627 1.7039C22.0757 1.58695 21.91 1.59158 21.7472 1.71829C21.5602 1.60135 21.3761 1.60649 21.2132 1.73321C21.0262 1.61626 20.8605 1.62089 20.6977 1.7476C20.5107 1.63066 20.3081 1.63631 20.1453 1.76303C19.9583 1.64608 19.7557 1.65174 19.5943 1.8395C19.4073 1.72255 19.2232 1.72769 19.0618 1.91545C18.8748 1.79851 18.6907 1.80365 18.5477 1.99089C18.3607 1.87395 18.195 1.87857 18.0336 2.06633C17.8466 1.94939 17.6624 1.95453 17.501 2.14228C17.314 2.02534 17.1299 2.03048 16.9685 2.21824C16.7815 2.10129 16.5974 2.10644 16.4544 2.29368C16.2674 2.17674 16.0833 2.18188 15.9219 2.36963C15.7349 2.25269 15.5507 2.25783 15.4078 2.44507C15.2207 2.32813 15.055 2.33276 14.8936 2.52051L14.8752 2.52103C14.7066 2.40357 14.5593 2.40768 14.4149 2.53388C14.3781 2.53491 14.3413 2.53594 14.3044 2.53697C14.1741 2.47952 14.0452 2.48312 13.9178 2.54776C13.8625 2.54931 13.7889 2.55136 13.7336 2.55291C13.6401 2.49443 13.5296 2.49752 13.439 2.56113C13.347 2.5637 13.2549 2.56628 13.1628 2.56885C13.0892 2.5709 13.0339 2.57245 12.9603 2.5745C12.8484 2.51654 12.7195 2.52014 12.592 2.58479C12.5552 2.58581 12.5184 2.58684 12.4631 2.58839C12.3144 2.53146 12.1671 2.53557 12.0227 2.66177C12.0043 2.66228 12.0043 2.66228 11.9859 2.6628C11.8173 2.54534 11.6515 2.54997 11.4887 2.67668C11.3201 2.55922 11.136 2.56436 10.9732 2.69108C10.8046 2.57362 10.6204 2.57876 10.4576 2.70547C10.289 2.58802 10.1049 2.59316 9.92362 2.72039C9.75503 2.60293 9.5709 2.60807 9.40807 2.73478C9.23947 2.61732 9.05535 2.62247 8.89251 2.74918C8.72392 2.63172 8.53979 2.63686 8.37695 2.76358C8.20836 2.64612 8.02423 2.65126 7.8614 2.77797C7.6928 2.66052 7.52708 2.66514 7.36425 2.79186C7.19565 2.6744 7.02994 2.67903 6.86711 2.80574C6.69852 2.68828 6.51438 2.69342 6.35011 2.75909C6.18007 2.58059 5.99594 2.58574 5.83311 2.71245C5.66307 2.53395 5.47895 2.53909 5.2977 2.66632C5.12766 2.48782 4.94353 2.49296 4.7807 2.61967C4.61066 2.44117 4.42653 2.44631 4.24528 2.57354C4.07669 2.45608 3.89257 2.46122 3.72829 2.52689C3.6532 2.46791 3.57811 2.40892 3.50445 2.41098L3.5275 3.38766C3.49068 3.38869 3.4553 3.45076 3.41847 3.45179C3.23146 3.33485 3.06576 3.33948 2.90292 3.46619C2.71591 3.34925 2.55019 3.35387 2.38735 3.48059C2.20035 3.36364 2.01622 3.36878 1.85339 3.4955C1.66638 3.37855 1.50066 3.38318 1.33783 3.5099C0.850458 3.15701 0.366275 3.72028 0.266527 5.7388C0.270044 7.44903 0.980936 7.12376 1.16714 8.76781ZM65.782 32.1297C65.7834 32.1907 65.7834 32.1907 65.782 32.1297V32.1297ZM67.114 15.9665C67.1324 15.966 67.1692 15.965 67.1876 15.9645L67.2061 15.9639C67.1876 15.9645 67.1508 15.9655 67.114 15.9665ZM64.1136 32.4817L64.1321 32.4812C64.2794 32.477 64.3898 32.474 64.1136 32.4817ZM64.0216 32.4842C64.0768 32.4827 64.1136 32.4817 64.1873 32.4796C64.1689 32.4801 64.0768 32.4827 63.9848 32.4853C63.9862 32.5463 64.0032 32.4847 64.0216 32.4842ZM63.5598 32.436C63.5966 32.435 63.6151 32.4345 63.6519 32.4335C63.6151 32.4345 63.5966 32.435 63.5598 32.436C63.5782 32.4355 63.5782 32.4355 63.5782 32.4355L63.5966 32.435L63.5782 32.4355C63.5782 32.4355 63.5782 32.4355 63.5966 32.435C63.6335 32.434 63.6519 32.4335 63.6887 32.4324C63.7071 32.4319 63.7255 32.4314 63.7255 32.4314C63.6887 32.4324 63.6335 32.434 63.5966 32.435C63.6335 32.434 63.6887 32.4324 63.7255 32.4314C63.6887 32.4324 63.6519 32.4335 63.6335 32.434C63.6519 32.4335 63.6887 32.4324 63.7071 32.4319L63.7255 32.4314C63.6519 32.4335 63.5966 32.435 63.5598 32.436ZM63.2284 32.4453C63.21 32.4458 63.21 32.4458 63.2284 32.4453V32.4453Z" fill="white"/>
</svg>
