<svg width="101" height="81" viewBox="0 0 101 81" fill="none" xmlns="http://www.w3.org/2000/svg">
<path fill-rule="evenodd" clip-rule="evenodd" d="M63.1539 11.8868L70.142 37.9668L96.222 30.9787L89.2339 4.89872L63.1539 11.8868ZM60.1867 8.54077C59.1198 8.82665 58.4866 9.92332 58.7725 10.9903L66.7959 40.934C67.0818 42.0009 68.1785 42.6341 69.2454 42.3482L99.1891 34.3248C100.256 34.0389 100.889 32.9422 100.603 31.8753L92.5799 1.93159C92.294 0.864657 91.1974 0.231492 90.1304 0.517375L60.1867 8.54077ZM20.75 44.2005C29.5866 44.2005 36.75 37.037 36.75 28.2005C36.75 19.3639 29.5866 12.2005 20.75 12.2005C11.9134 12.2005 4.75 19.3639 4.75 28.2005C4.75 37.037 11.9134 44.2005 20.75 44.2005ZM20.75 48.2005C31.7957 48.2005 40.75 39.2462 40.75 28.2005C40.75 17.1548 31.7957 8.20049 20.75 8.20049C9.7043 8.20049 0.75 17.1548 0.75 28.2005C0.75 39.2462 9.7043 48.2005 20.75 48.2005ZM38.0276 76.7005L52.75 51.2005L67.4724 76.7005H38.0276ZM51.018 46.2005C51.7878 44.8672 53.7122 44.8672 54.482 46.2005L72.6686 77.7005C73.4384 79.0338 72.4761 80.7005 70.9365 80.7005H34.5635C33.0239 80.7005 32.0616 79.0338 32.8314 77.7005L51.018 46.2005Z" fill="url(#paint0_linear)"/>
<defs>
<linearGradient id="paint0_linear" x1="122.877" y1="83.7871" x2="-22.0264" y2="0.440425" gradientUnits="userSpaceOnUse">
<stop stop-color="#0069CE"/>
<stop offset="0.0001" stop-color="#0069CE"/>
<stop offset="1" stop-color="#0FB7C9"/>
</linearGradient>
</defs>
</svg>
