<svg width="81" height="78" viewBox="0 0 81 78" fill="none" xmlns="http://www.w3.org/2000/svg">
<mask id="path-1-inside-1" fill="white">
<path d="M53.1393 75.9236C53.4995 76.9678 54.6403 77.5271 55.6652 77.1152C63.7829 73.8532 70.6266 68.0102 75.1206 60.4612C79.9564 52.3382 81.7588 42.7649 80.2083 33.4394C78.6578 24.1139 73.8545 15.639 66.6504 9.51774C59.4463 3.39649 50.307 0.0246063 40.8535 0.000134028C31.4001 -0.0243383 22.2434 3.30019 15.0077 9.38405C7.77205 15.4679 2.92495 23.9179 1.32618 33.2352C-0.272594 42.5525 1.48029 52.135 6.27393 60.283C10.7288 67.8551 17.5421 73.7335 25.6428 77.0375C26.6656 77.4546 27.8093 76.9013 28.1748 75.859L36.7659 51.361C37.1314 50.3187 36.5679 49.1935 35.6185 48.6289C34.1746 47.7702 32.9597 46.557 32.097 45.0907C30.8939 43.0457 30.454 40.6406 30.8552 38.3021C31.2565 35.9636 32.473 33.8428 34.2891 32.3159C36.1051 30.7889 38.4033 29.9545 40.776 29.9607C43.1487 29.9668 45.4425 30.8131 47.2506 32.3494C49.0587 33.8858 50.2643 36.0128 50.6534 38.3534C51.0426 40.6939 50.5902 43.0967 49.3765 45.1355C48.5063 46.5972 47.285 47.8041 45.8367 48.6553C44.8845 49.215 44.3151 50.3373 44.6753 51.3815L53.1393 75.9236Z"/>
</mask>
<path d="M53.1393 75.9236C53.4995 76.9678 54.6403 77.5271 55.6652 77.1152C63.7829 73.8532 70.6266 68.0102 75.1206 60.4612C79.9564 52.3382 81.7588 42.7649 80.2083 33.4394C78.6578 24.1139 73.8545 15.639 66.6504 9.51774C59.4463 3.39649 50.307 0.0246063 40.8535 0.000134028C31.4001 -0.0243383 22.2434 3.30019 15.0077 9.38405C7.77205 15.4679 2.92495 23.9179 1.32618 33.2352C-0.272594 42.5525 1.48029 52.135 6.27393 60.283C10.7288 67.8551 17.5421 73.7335 25.6428 77.0375C26.6656 77.4546 27.8093 76.9013 28.1748 75.859L36.7659 51.361C37.1314 50.3187 36.5679 49.1935 35.6185 48.6289C34.1746 47.7702 32.9597 46.557 32.097 45.0907C30.8939 43.0457 30.454 40.6406 30.8552 38.3021C31.2565 35.9636 32.473 33.8428 34.2891 32.3159C36.1051 30.7889 38.4033 29.9545 40.776 29.9607C43.1487 29.9668 45.4425 30.8131 47.2506 32.3494C49.0587 33.8858 50.2643 36.0128 50.6534 38.3534C51.0426 40.6939 50.5902 43.0967 49.3765 45.1355C48.5063 46.5972 47.285 47.8041 45.8367 48.6553C44.8845 49.215 44.3151 50.3373 44.6753 51.3815L53.1393 75.9236Z" stroke="url(#paint0_linear)" stroke-width="8" mask="url(#path-1-inside-1)"/>
<defs>
<linearGradient id="paint0_linear" x1="98.5278" y1="83.0769" x2="-28.7133" y2="24.2967" gradientUnits="userSpaceOnUse">
<stop stop-color="#0069CE"/>
<stop offset="1" stop-color="#0FB7C9"/>
</linearGradient>
</defs>
</svg>
