<svg width="308" height="53" viewBox="0 0 308 53" fill="none" xmlns="http://www.w3.org/2000/svg">
<path d="M18.5749 39.9998V24.3137C18.5749 22.4016 18.2957 20.9633 17.7373 19.9988C17.1958 19.0173 16.3159 18.5266 15.0976 18.5266C13.4224 18.5266 12.2125 19.195 11.4679 20.5318C10.7234 21.8686 10.3511 24.1614 10.3511 27.4103V39.9998H0.426758V11.242H7.91445L9.15817 14.7954H9.74196C10.588 13.4417 11.7556 12.4265 13.2447 11.7496C14.7507 11.0728 16.4767 10.7343 18.4226 10.7343C21.6038 10.7343 24.0743 11.6565 25.8342 13.501C27.6109 15.3454 28.4993 17.9428 28.4993 21.2932V39.9998H18.5749Z" fill="#1A88C7"/>
<path d="M18.5749 39.9998V24.3137C18.5749 22.4016 18.2957 20.9633 17.7373 19.9988C17.1958 19.0173 16.3159 18.5266 15.0976 18.5266C13.4224 18.5266 12.2125 19.195 11.4679 20.5318C10.7234 21.8686 10.3511 24.1614 10.3511 27.4103V39.9998H0.426758V11.242H7.91445L9.15817 14.7954H9.74196C10.588 13.4417 11.7556 12.4265 13.2447 11.7496C14.7507 11.0728 16.4767 10.7343 18.4226 10.7343C21.6038 10.7343 24.0743 11.6565 25.8342 13.501C27.6109 15.3454 28.4993 17.9428 28.4993 21.2932V39.9998H18.5749Z" fill="url(#paint0_linear)"/>
<path d="M45.756 40.5074C40.9673 40.5074 37.2446 39.2383 34.5879 36.7001C31.9482 34.145 30.6283 30.5154 30.6283 25.8112C30.6283 20.9548 31.8551 17.2321 34.3087 14.6432C36.7623 12.0373 40.265 10.7343 44.8169 10.7343C49.1487 10.7343 52.4907 11.8681 54.8428 14.1355C57.2118 16.3861 58.3962 19.635 58.3962 23.8822V28.2987H40.6542C40.7219 29.9062 41.3057 31.1669 42.4056 32.0806C43.5224 32.9944 45.0368 33.4512 46.949 33.4512C48.6919 33.4512 50.2909 33.2905 51.7462 32.969C53.2183 32.6305 54.8089 32.0637 56.518 31.2684V38.4007C54.9612 39.196 53.3537 39.746 51.6954 40.0506C50.0371 40.3551 48.0573 40.5074 45.756 40.5074ZM45.1722 17.4859C44.0046 17.4859 43.0232 17.8582 42.2279 18.6028C41.4495 19.3304 40.9926 20.481 40.8573 22.0547H49.3856C49.3518 20.6672 48.9541 19.5588 48.1927 18.7297C47.4481 17.9005 46.4413 17.4859 45.1722 17.4859Z" fill="#1A88C7"/>
<path d="M45.756 40.5074C40.9673 40.5074 37.2446 39.2383 34.5879 36.7001C31.9482 34.145 30.6283 30.5154 30.6283 25.8112C30.6283 20.9548 31.8551 17.2321 34.3087 14.6432C36.7623 12.0373 40.265 10.7343 44.8169 10.7343C49.1487 10.7343 52.4907 11.8681 54.8428 14.1355C57.2118 16.3861 58.3962 19.635 58.3962 23.8822V28.2987H40.6542C40.7219 29.9062 41.3057 31.1669 42.4056 32.0806C43.5224 32.9944 45.0368 33.4512 46.949 33.4512C48.6919 33.4512 50.2909 33.2905 51.7462 32.969C53.2183 32.6305 54.8089 32.0637 56.518 31.2684V38.4007C54.9612 39.196 53.3537 39.746 51.6954 40.0506C50.0371 40.3551 48.0573 40.5074 45.756 40.5074ZM45.1722 17.4859C44.0046 17.4859 43.0232 17.8582 42.2279 18.6028C41.4495 19.3304 40.9926 20.481 40.8573 22.0547H49.3856C49.3518 20.6672 48.9541 19.5588 48.1927 18.7297C47.4481 17.9005 46.4413 17.4859 45.1722 17.4859Z" fill="url(#paint1_linear)"/>
<path d="M77.9881 10.7343C78.8511 10.7343 79.6718 10.802 80.4502 10.9374L81.0086 11.0389L80.1202 20.4049C79.308 20.2018 78.1827 20.1003 76.7444 20.1003C74.5785 20.1003 73.0048 20.5995 72.0233 21.5978C71.0419 22.5793 70.5512 24.0007 70.5512 25.862V39.9998H60.6268V11.242H68.013L69.5613 15.8361H70.0435C70.8727 14.3132 72.0233 13.0864 73.4955 12.1557C74.9846 11.2081 76.4821 10.7343 77.9881 10.7343Z" fill="#1A88C7"/>
<path d="M77.9881 10.7343C78.8511 10.7343 79.6718 10.802 80.4502 10.9374L81.0086 11.0389L80.1202 20.4049C79.308 20.2018 78.1827 20.1003 76.7444 20.1003C74.5785 20.1003 73.0048 20.5995 72.0233 21.5978C71.0419 22.5793 70.5512 24.0007 70.5512 25.862V39.9998H60.6268V11.242H68.013L69.5613 15.8361H70.0435C70.8727 14.3132 72.0233 13.0864 73.4955 12.1557C74.9846 11.2081 76.4821 10.7343 77.9881 10.7343Z" fill="url(#paint2_linear)"/>
<path d="M90.5999 40.5074C88.5525 40.5074 86.7588 39.9236 85.2189 38.7561C83.696 37.5885 82.5115 35.871 81.6655 33.6035C80.8363 31.3361 80.4217 28.6879 80.4217 25.659C80.4217 20.9887 81.3609 17.3337 83.2392 14.6939C85.1174 12.0542 87.6979 10.7343 90.9807 10.7343C92.5882 10.7343 93.9927 11.0558 95.1941 11.6988C96.4124 12.3419 97.5208 13.4248 98.5191 14.9477H98.7222C98.4007 12.6972 98.2399 10.4467 98.2399 8.19612V0.505371H108.24V39.9998H100.753L98.6207 36.3702H98.2399C96.5309 39.1283 93.9842 40.5074 90.5999 40.5074ZM94.6611 32.6644C96.2517 32.6644 97.3685 32.1652 98.0115 31.1669C98.6714 30.1685 99.0268 28.6287 99.0775 26.5473V25.7605C99.0775 23.2223 98.7137 21.4202 97.9861 20.3541C97.2585 19.2711 96.1163 18.7297 94.5595 18.7297C93.2566 18.7297 92.2413 19.3473 91.5137 20.5826C90.803 21.8009 90.4476 23.5438 90.4476 25.8112C90.4476 28.0449 90.8115 29.7455 91.5391 30.913C92.2667 32.0806 93.3073 32.6644 94.6611 32.6644Z" fill="#1A88C7"/>
<path d="M90.5999 40.5074C88.5525 40.5074 86.7588 39.9236 85.2189 38.7561C83.696 37.5885 82.5115 35.871 81.6655 33.6035C80.8363 31.3361 80.4217 28.6879 80.4217 25.659C80.4217 20.9887 81.3609 17.3337 83.2392 14.6939C85.1174 12.0542 87.6979 10.7343 90.9807 10.7343C92.5882 10.7343 93.9927 11.0558 95.1941 11.6988C96.4124 12.3419 97.5208 13.4248 98.5191 14.9477H98.7222C98.4007 12.6972 98.2399 10.4467 98.2399 8.19612V0.505371H108.24V39.9998H100.753L98.6207 36.3702H98.2399C96.5309 39.1283 93.9842 40.5074 90.5999 40.5074ZM94.6611 32.6644C96.2517 32.6644 97.3685 32.1652 98.0115 31.1669C98.6714 30.1685 99.0268 28.6287 99.0775 26.5473V25.7605C99.0775 23.2223 98.7137 21.4202 97.9861 20.3541C97.2585 19.2711 96.1163 18.7297 94.5595 18.7297C93.2566 18.7297 92.2413 19.3473 91.5137 20.5826C90.803 21.8009 90.4476 23.5438 90.4476 25.8112C90.4476 28.0449 90.8115 29.7455 91.5391 30.913C92.2667 32.0806 93.3073 32.6644 94.6611 32.6644Z" fill="url(#paint3_linear)"/>
<path d="M130.799 40.5074C128.751 40.5074 126.958 39.9236 125.418 38.7561C123.895 37.5885 122.711 35.871 121.864 33.6035C121.035 31.3361 120.621 28.6879 120.621 25.659C120.621 20.9887 121.56 17.3337 123.438 14.6939C125.316 12.0542 127.897 10.7343 131.18 10.7343C132.787 10.7343 134.192 11.0558 135.393 11.6988C136.611 12.3419 137.72 13.4248 138.718 14.9477H138.921C138.6 12.6972 138.439 10.4467 138.439 8.19612V0.505371H148.439V39.9998H140.952L138.82 36.3702H138.439C136.73 39.1283 134.183 40.5074 130.799 40.5074ZM134.86 32.6644C136.451 32.6644 137.567 32.1652 138.211 31.1669C138.87 30.1685 139.226 28.6287 139.277 26.5473V25.7605C139.277 23.2223 138.913 21.4202 138.185 20.3541C137.458 19.2711 136.315 18.7297 134.759 18.7297C133.456 18.7297 132.44 19.3473 131.713 20.5826C131.002 21.8009 130.647 23.5438 130.647 25.8112C130.647 28.0449 131.01 29.7455 131.738 30.913C132.466 32.0806 133.506 32.6644 134.86 32.6644Z" fill="#1A88C7"/>
<path d="M130.799 40.5074C128.751 40.5074 126.958 39.9236 125.418 38.7561C123.895 37.5885 122.711 35.871 121.864 33.6035C121.035 31.3361 120.621 28.6879 120.621 25.659C120.621 20.9887 121.56 17.3337 123.438 14.6939C125.316 12.0542 127.897 10.7343 131.18 10.7343C132.787 10.7343 134.192 11.0558 135.393 11.6988C136.611 12.3419 137.72 13.4248 138.718 14.9477H138.921C138.6 12.6972 138.439 10.4467 138.439 8.19612V0.505371H148.439V39.9998H140.952L138.82 36.3702H138.439C136.73 39.1283 134.183 40.5074 130.799 40.5074ZM134.86 32.6644C136.451 32.6644 137.567 32.1652 138.211 31.1669C138.87 30.1685 139.226 28.6287 139.277 26.5473V25.7605C139.277 23.2223 138.913 21.4202 138.185 20.3541C137.458 19.2711 136.315 18.7297 134.759 18.7297C133.456 18.7297 132.44 19.3473 131.713 20.5826C131.002 21.8009 130.647 23.5438 130.647 25.8112C130.647 28.0449 131.01 29.7455 131.738 30.913C132.466 32.0806 133.506 32.6644 134.86 32.6644Z" fill="url(#paint4_linear)"/>
<path d="M170.696 39.9998L168.793 36.1925H168.59C167.253 37.8508 165.891 38.9845 164.503 39.5937C163.116 40.2028 161.322 40.5074 159.122 40.5074C156.415 40.5074 154.283 39.6952 152.726 38.0708C151.169 36.4463 150.391 34.1619 150.391 31.2176C150.391 28.1549 151.457 25.8789 153.589 24.3899C155.721 22.8839 158.809 22.0378 162.853 21.8517L167.651 21.6994V21.2932C167.651 18.9243 166.483 17.7398 164.148 17.7398C162.05 17.7398 159.385 18.4505 156.153 19.8719L153.284 13.3233C156.635 11.5973 160.865 10.7343 165.975 10.7343C169.664 10.7343 172.516 11.6481 174.529 13.4756C176.56 15.3031 177.575 17.8582 177.575 21.141V39.9998H170.696ZM163.336 33.502C164.537 33.502 165.561 33.1213 166.407 32.3598C167.27 31.5983 167.701 30.6084 167.701 29.3901V27.1565L165.417 27.258C162.151 27.3765 160.518 28.5779 160.518 30.8623C160.518 32.6221 161.457 33.502 163.336 33.502Z" fill="#1A88C7"/>
<path d="M170.696 39.9998L168.793 36.1925H168.59C167.253 37.8508 165.891 38.9845 164.503 39.5937C163.116 40.2028 161.322 40.5074 159.122 40.5074C156.415 40.5074 154.283 39.6952 152.726 38.0708C151.169 36.4463 150.391 34.1619 150.391 31.2176C150.391 28.1549 151.457 25.8789 153.589 24.3899C155.721 22.8839 158.809 22.0378 162.853 21.8517L167.651 21.6994V21.2932C167.651 18.9243 166.483 17.7398 164.148 17.7398C162.05 17.7398 159.385 18.4505 156.153 19.8719L153.284 13.3233C156.635 11.5973 160.865 10.7343 165.975 10.7343C169.664 10.7343 172.516 11.6481 174.529 13.4756C176.56 15.3031 177.575 17.8582 177.575 21.141V39.9998H170.696ZM163.336 33.502C164.537 33.502 165.561 33.1213 166.407 32.3598C167.27 31.5983 167.701 30.6084 167.701 29.3901V27.1565L165.417 27.258C162.151 27.3765 160.518 28.5779 160.518 30.8623C160.518 32.6221 161.457 33.502 163.336 33.502Z" fill="url(#paint5_linear)"/>
<path d="M177.47 11.242H187.928L192.801 27.7403C193.038 28.6033 193.199 29.6439 193.283 30.8623H193.486C193.622 29.6947 193.825 28.671 194.096 27.791L199.096 11.242H209.223L197.852 41.8273C196.397 45.7192 194.603 48.4689 192.471 50.0765C190.356 51.684 187.589 52.4877 184.171 52.4877C182.851 52.4877 181.498 52.3439 180.11 52.0563V44.264C181.007 44.467 182.031 44.5686 183.181 44.5686C184.061 44.5686 184.831 44.3993 185.491 44.0609C186.151 43.7225 186.726 43.2402 187.217 42.6141C187.708 42.005 188.232 40.9982 188.791 39.5937L177.47 11.242Z" fill="#1A88C7"/>
<path d="M177.47 11.242H187.928L192.801 27.7403C193.038 28.6033 193.199 29.6439 193.283 30.8623H193.486C193.622 29.6947 193.825 28.671 194.096 27.791L199.096 11.242H209.223L197.852 41.8273C196.397 45.7192 194.603 48.4689 192.471 50.0765C190.356 51.684 187.589 52.4877 184.171 52.4877C182.851 52.4877 181.498 52.3439 180.11 52.0563V44.264C181.007 44.467 182.031 44.5686 183.181 44.5686C184.061 44.5686 184.831 44.3993 185.491 44.0609C186.151 43.7225 186.726 43.2402 187.217 42.6141C187.708 42.005 188.232 40.9982 188.791 39.5937L177.47 11.242Z" fill="url(#paint6_linear)"/>
<path d="M231.506 31.1669C231.506 34.2465 230.457 36.5732 228.358 38.1469C226.26 39.7206 223.248 40.5074 219.322 40.5074C217.19 40.5074 215.337 40.389 213.764 40.1521C212.19 39.9321 210.582 39.5175 208.941 38.9084V30.9638C210.481 31.6406 212.165 32.1991 213.992 32.639C215.837 33.079 217.478 33.2989 218.916 33.2989C221.065 33.2989 222.14 32.8082 222.14 31.8268C222.14 31.3191 221.835 30.8707 221.226 30.4815C220.634 30.0754 218.891 29.297 215.997 28.1464C213.358 27.0634 211.513 25.8366 210.464 24.466C209.415 23.0784 208.89 21.3271 208.89 19.2119C208.89 16.5383 209.923 14.457 211.987 12.9679C214.051 11.4789 216.97 10.7343 220.744 10.7343C222.639 10.7343 224.416 10.9458 226.074 11.3689C227.749 11.775 229.484 12.3757 231.277 13.171L228.587 19.5673C227.267 18.975 225.871 18.4758 224.399 18.0697C222.927 17.6467 221.725 17.4352 220.794 17.4352C219.17 17.4352 218.358 17.8328 218.358 18.6281C218.358 19.1189 218.637 19.5419 219.195 19.8972C219.771 20.2357 221.412 20.9379 224.12 22.0039C226.133 22.8331 227.631 23.6453 228.612 24.4406C229.61 25.2359 230.338 26.1751 230.795 27.258C231.269 28.3241 231.506 29.627 231.506 31.1669Z" fill="#1A88C7"/>
<path d="M231.506 31.1669C231.506 34.2465 230.457 36.5732 228.358 38.1469C226.26 39.7206 223.248 40.5074 219.322 40.5074C217.19 40.5074 215.337 40.389 213.764 40.1521C212.19 39.9321 210.582 39.5175 208.941 38.9084V30.9638C210.481 31.6406 212.165 32.1991 213.992 32.639C215.837 33.079 217.478 33.2989 218.916 33.2989C221.065 33.2989 222.14 32.8082 222.14 31.8268C222.14 31.3191 221.835 30.8707 221.226 30.4815C220.634 30.0754 218.891 29.297 215.997 28.1464C213.358 27.0634 211.513 25.8366 210.464 24.466C209.415 23.0784 208.89 21.3271 208.89 19.2119C208.89 16.5383 209.923 14.457 211.987 12.9679C214.051 11.4789 216.97 10.7343 220.744 10.7343C222.639 10.7343 224.416 10.9458 226.074 11.3689C227.749 11.775 229.484 12.3757 231.277 13.171L228.587 19.5673C227.267 18.975 225.871 18.4758 224.399 18.0697C222.927 17.6467 221.725 17.4352 220.794 17.4352C219.17 17.4352 218.358 17.8328 218.358 18.6281C218.358 19.1189 218.637 19.5419 219.195 19.8972C219.771 20.2357 221.412 20.9379 224.12 22.0039C226.133 22.8331 227.631 23.6453 228.612 24.4406C229.61 25.2359 230.338 26.1751 230.795 27.258C231.269 28.3241 231.506 29.627 231.506 31.1669Z" fill="url(#paint7_linear)"/>
<path d="M264.242 39.9998H254.064V20.3541C254.064 17.9682 254.115 15.7853 254.216 13.8055C253.59 14.567 252.812 15.3623 251.881 16.1915L247.668 19.6688L242.465 13.2725L255.206 2.89128H264.242V39.9998Z" fill="#1A88C7"/>
<path d="M264.242 39.9998H254.064V20.3541C254.064 17.9682 254.115 15.7853 254.216 13.8055C253.59 14.567 252.812 15.3623 251.881 16.1915L247.668 19.6688L242.465 13.2725L255.206 2.89128H264.242V39.9998Z" fill="url(#paint8_linear)"/>
<path d="M269.595 35.7864C269.595 34.2296 270.052 33.0282 270.966 32.1821C271.896 31.3361 273.242 30.913 275.001 30.913C276.677 30.913 277.963 31.3361 278.859 32.1821C279.756 33.0282 280.205 34.2296 280.205 35.7864C280.205 37.3093 279.739 38.5023 278.809 39.3652C277.895 40.2113 276.626 40.6343 275.001 40.6343C273.326 40.6343 272.006 40.2113 271.042 39.3652C270.077 38.5192 269.595 37.3262 269.595 35.7864Z" fill="#1A88C7"/>
<path d="M269.595 35.7864C269.595 34.2296 270.052 33.0282 270.966 32.1821C271.896 31.3361 273.242 30.913 275.001 30.913C276.677 30.913 277.963 31.3361 278.859 32.1821C279.756 33.0282 280.205 34.2296 280.205 35.7864C280.205 37.3093 279.739 38.5023 278.809 39.3652C277.895 40.2113 276.626 40.6343 275.001 40.6343C273.326 40.6343 272.006 40.2113 271.042 39.3652C270.077 38.5192 269.595 37.3262 269.595 35.7864Z" fill="url(#paint9_linear)"/>
<path d="M307.69 21.4963C307.69 28.0618 306.59 32.8759 304.391 35.9387C302.191 38.9845 298.824 40.5074 294.289 40.5074C289.855 40.5074 286.513 38.9168 284.263 35.7356C282.012 32.5375 280.887 27.791 280.887 21.4963C280.887 14.897 281.987 10.0575 284.187 6.97779C286.386 3.8981 289.754 2.35826 294.289 2.35826C298.705 2.35826 302.039 3.96579 304.289 7.18084C306.557 10.379 307.69 15.1508 307.69 21.4963ZM290.862 21.4963C290.862 25.6928 291.124 28.5779 291.649 30.1516C292.173 31.7253 293.053 32.5121 294.289 32.5121C295.541 32.5121 296.421 31.6999 296.928 30.0754C297.453 28.451 297.715 25.5913 297.715 21.4963C297.715 17.3844 297.453 14.5078 296.928 12.8664C296.404 11.2081 295.524 10.379 294.289 10.379C293.053 10.379 292.173 11.1743 291.649 12.7649C291.124 14.3555 290.862 17.266 290.862 21.4963Z" fill="#1A88C7"/>
<path d="M307.69 21.4963C307.69 28.0618 306.59 32.8759 304.391 35.9387C302.191 38.9845 298.824 40.5074 294.289 40.5074C289.855 40.5074 286.513 38.9168 284.263 35.7356C282.012 32.5375 280.887 27.791 280.887 21.4963C280.887 14.897 281.987 10.0575 284.187 6.97779C286.386 3.8981 289.754 2.35826 294.289 2.35826C298.705 2.35826 302.039 3.96579 304.289 7.18084C306.557 10.379 307.69 15.1508 307.69 21.4963ZM290.862 21.4963C290.862 25.6928 291.124 28.5779 291.649 30.1516C292.173 31.7253 293.053 32.5121 294.289 32.5121C295.541 32.5121 296.421 31.6999 296.928 30.0754C297.453 28.451 297.715 25.5913 297.715 21.4963C297.715 17.3844 297.453 14.5078 296.928 12.8664C296.404 11.2081 295.524 10.379 294.289 10.379C293.053 10.379 292.173 11.1743 291.649 12.7649C291.124 14.3555 290.862 17.266 290.862 21.4963Z" fill="url(#paint10_linear)"/>
<defs>
<linearGradient id="paint0_linear" x1="-4.10596" y1="-126.76" x2="5.00001" y2="90.5" gradientUnits="userSpaceOnUse">
<stop offset="0.528176" stop-color="#06B3C6"/>
<stop offset="1" stop-color="#0069CE"/>
</linearGradient>
<linearGradient id="paint1_linear" x1="-4.10596" y1="-126.76" x2="5.00001" y2="90.5" gradientUnits="userSpaceOnUse">
<stop offset="0.528176" stop-color="#06B3C6"/>
<stop offset="1" stop-color="#0069CE"/>
</linearGradient>
<linearGradient id="paint2_linear" x1="-4.10596" y1="-126.76" x2="5.00001" y2="90.5" gradientUnits="userSpaceOnUse">
<stop offset="0.528176" stop-color="#06B3C6"/>
<stop offset="1" stop-color="#0069CE"/>
</linearGradient>
<linearGradient id="paint3_linear" x1="-4.10596" y1="-126.76" x2="5.00001" y2="90.5" gradientUnits="userSpaceOnUse">
<stop offset="0.528176" stop-color="#06B3C6"/>
<stop offset="1" stop-color="#0069CE"/>
</linearGradient>
<linearGradient id="paint4_linear" x1="-4.10596" y1="-126.76" x2="5.00001" y2="90.5" gradientUnits="userSpaceOnUse">
<stop offset="0.528176" stop-color="#06B3C6"/>
<stop offset="1" stop-color="#0069CE"/>
</linearGradient>
<linearGradient id="paint5_linear" x1="-4.10596" y1="-126.76" x2="5.00001" y2="90.5" gradientUnits="userSpaceOnUse">
<stop offset="0.528176" stop-color="#06B3C6"/>
<stop offset="1" stop-color="#0069CE"/>
</linearGradient>
<linearGradient id="paint6_linear" x1="-4.10596" y1="-126.76" x2="5.00001" y2="90.5" gradientUnits="userSpaceOnUse">
<stop offset="0.528176" stop-color="#06B3C6"/>
<stop offset="1" stop-color="#0069CE"/>
</linearGradient>
<linearGradient id="paint7_linear" x1="-4.10596" y1="-126.76" x2="5.00001" y2="90.5" gradientUnits="userSpaceOnUse">
<stop offset="0.528176" stop-color="#06B3C6"/>
<stop offset="1" stop-color="#0069CE"/>
</linearGradient>
<linearGradient id="paint8_linear" x1="-4.10596" y1="-126.76" x2="5.00001" y2="90.5" gradientUnits="userSpaceOnUse">
<stop offset="0.528176" stop-color="#06B3C6"/>
<stop offset="1" stop-color="#0069CE"/>
</linearGradient>
<linearGradient id="paint9_linear" x1="-4.10596" y1="-126.76" x2="5.00001" y2="90.5" gradientUnits="userSpaceOnUse">
<stop offset="0.528176" stop-color="#06B3C6"/>
<stop offset="1" stop-color="#0069CE"/>
</linearGradient>
<linearGradient id="paint10_linear" x1="-4.10596" y1="-126.76" x2="5.00001" y2="90.5" gradientUnits="userSpaceOnUse">
<stop offset="0.528176" stop-color="#06B3C6"/>
<stop offset="1" stop-color="#0069CE"/>
</linearGradient>
</defs>
</svg>
