<svg width="79" height="14" viewBox="0 0 79 14" fill="none" xmlns="http://www.w3.org/2000/svg">
<g clip-path="url(#clip0)">
<path d="M27.3529 11.0259L25.2121 6.53844C24.701 5.47807 24.1761 4.2735 23.9969 3.70726L23.9555 3.74862C24.0245 4.54919 24.0382 5.5576 24.052 6.39953L24.1072 11.0259H22.5474V1.46989H24.3426L26.6626 6.1355C27.0515 6.92873 27.3794 7.75041 27.6435 8.59343L27.6848 8.55207C27.6435 8.06854 27.547 6.70173 27.547 5.83117L27.5194 1.46777H29.0251V11.0238L27.3529 11.0259Z" fill="white"/>
<path d="M31.8678 7.9462V8.05224C31.8678 9.01929 32.2273 10.0404 33.5941 10.0404C34.243 10.0404 34.8093 9.80608 35.3342 9.35013L35.928 10.2758C35.2316 10.8812 34.3376 11.2105 33.4149 11.2015C31.4405 11.2015 30.1978 9.77958 30.1978 7.5422C30.1978 6.31324 30.4597 5.49782 31.0683 4.80752C31.6345 4.15858 32.3248 3.86804 33.2092 3.86804C33.9184 3.84569 34.608 4.10359 35.1284 4.58591C35.736 5.13836 36.0404 5.99407 36.0404 7.62385V7.94196L31.8678 7.9462ZM33.2071 5.01854C32.3514 5.01854 31.8816 5.69505 31.8816 6.82752H34.4636C34.4636 5.69717 33.9673 5.01854 33.2071 5.01854Z" fill="white"/>
<path d="M44.1216 11.0531H42.6944L41.8387 7.83593C41.6181 7.00779 41.3827 5.92728 41.3827 5.92728H41.3551C41.3551 5.92728 41.2491 6.61758 40.8992 7.90168L40.0573 11.0499H38.6342L36.7256 4.13102L38.2313 3.91895L38.9905 7.30257C39.1835 8.17207 39.35 9.13912 39.35 9.13912H39.3913C39.4932 8.50679 39.6269 7.88002 39.7922 7.26122L40.6903 4.03028H42.1822L42.9701 7.18169C43.2606 8.31416 43.4122 9.16987 43.4122 9.16987H43.4536C43.4536 9.16987 43.619 8.10951 43.7993 7.29197L44.5171 4.0324H46.0918L44.1216 11.0531Z" fill="white"/>
<path d="M54.9424 11.0257L54.1143 9.54759C53.4526 8.37482 53.0094 7.7121 52.4845 7.18191C52.4078 7.09181 52.3124 7.01958 52.2049 6.97031C52.0973 6.92103 51.9803 6.8959 51.862 6.89668V11.0257H50.3022V1.46973H53.2161C55.357 1.46973 56.323 2.71247 56.323 4.20441C56.323 5.57122 55.4397 6.82881 53.9478 6.82881C54.2935 7.00801 54.9286 7.93371 55.4249 8.73747L56.833 11.03L54.9424 11.0257ZM52.7326 2.75489H51.862V5.77905H52.6764C53.5046 5.77905 53.9488 5.67301 54.2373 5.37823C54.4992 5.11632 54.6614 4.7155 54.6614 4.21819C54.6667 3.25114 54.1418 2.75383 52.7326 2.75383V2.75489Z" fill="white"/>
<path d="M58.9191 7.9462V8.05224C58.9191 9.01929 59.2786 10.0404 60.6454 10.0404C61.2943 10.0404 61.8606 9.80608 62.3854 9.35013L62.9792 10.2758C62.2828 10.8812 61.3889 11.2105 60.4662 11.2015C58.4918 11.2015 57.249 9.77958 57.249 7.5422C57.249 6.31324 57.5109 5.49782 58.1196 4.80752C58.6858 4.15858 59.3761 3.86804 60.2605 3.86804C60.9697 3.84569 61.6592 4.10359 62.1797 4.58591C62.7873 5.13836 63.0916 5.99407 63.0916 7.62385V7.94196L58.9191 7.9462ZM60.2594 5.01854C59.4037 5.01854 58.9339 5.69505 58.9339 6.82752H61.5117C61.5117 5.69717 61.0186 5.01854 60.2594 5.01854Z" fill="white"/>
<path d="M65.9344 11.1781C64.4011 11.1781 64.4011 9.79963 64.4011 9.20371V3.25082C64.4188 2.56711 64.3744 1.8832 64.2686 1.2075L65.8294 0.861816C65.9354 1.28596 65.9535 1.87022 65.9535 2.78108V8.70534C65.9535 9.64482 65.9948 9.79645 66.1051 9.96187C66.1654 10.0309 66.2465 10.0786 66.3361 10.0977C66.4258 10.1168 66.5192 10.1063 66.6024 10.0679L66.8505 11.0074C66.5594 11.1241 66.248 11.1821 65.9344 11.1781Z" fill="white"/>
<path d="M68.5713 3.00274C68.4406 3.00151 68.3113 2.97437 68.1911 2.92292C68.0708 2.87146 67.962 2.7967 67.8708 2.70294C67.7796 2.60919 67.7079 2.4983 67.6598 2.37667C67.6116 2.25505 67.5881 2.12511 67.5905 1.99434C67.592 1.79583 67.6525 1.60226 67.7643 1.43823C67.8761 1.2742 68.0341 1.1471 68.2183 1.07311C68.4025 0.99912 68.6046 0.981568 68.7988 1.02269C68.993 1.0638 69.1706 1.16174 69.309 1.30404C69.4474 1.44633 69.5404 1.62657 69.5761 1.82184C69.6118 2.01711 69.5887 2.21859 69.5096 2.40067C69.4305 2.58275 69.2991 2.73721 69.132 2.84442C68.965 2.95162 68.7698 3.00673 68.5713 3.00274V3.00274ZM67.8121 11.0265V4.149L69.3454 3.87224V11.0255L67.8121 11.0265Z" fill="white"/>
<path d="M73.6951 11.2061C71.7864 11.2061 70.7261 9.86683 70.7261 7.61568C70.7261 5.0708 72.2456 3.85986 73.8011 3.85986C74.5603 3.85986 75.1128 4.03907 75.7342 4.61908L74.9781 5.62643C74.5635 5.25318 74.2051 5.08777 73.8043 5.08777C73.5714 5.08382 73.3424 5.14847 73.146 5.27366C72.9495 5.39885 72.7942 5.57906 72.6994 5.79185C72.4873 6.21599 72.4099 6.86918 72.4099 7.73868C72.4099 8.69301 72.5616 9.29954 72.8797 9.64733C72.9968 9.77589 73.1399 9.87809 73.2995 9.94719C73.459 10.0163 73.6315 10.0507 73.8054 10.0482C74.2889 10.0482 74.7597 9.81381 75.2135 9.35785L75.9314 10.2836C75.2962 10.9155 74.6335 11.2061 73.6951 11.2061Z" fill="white"/>
<path d="M77.2275 11.1796C77.0244 11.1807 76.8257 11.1214 76.6564 11.0094C76.487 10.8974 76.3548 10.7376 76.2764 10.5503C76.1979 10.3631 76.1769 10.1567 76.2158 9.9575C76.2548 9.75825 76.352 9.57505 76.4952 9.43111C76.6384 9.28718 76.8211 9.189 77.0202 9.149C77.2192 9.109 77.4256 9.129 77.6133 9.20645C77.801 9.2839 77.9614 9.41532 78.0744 9.58405C78.1873 9.75279 78.2475 9.95124 78.2475 10.1543C78.2481 10.2886 78.2221 10.4218 78.1711 10.5461C78.1201 10.6704 78.0451 10.7834 77.9503 10.8787C77.8556 10.9739 77.7429 11.0496 77.6189 11.1012C77.4948 11.1528 77.3618 11.1795 77.2275 11.1796V11.1796ZM77.2275 9.33248C77.0628 9.32528 76.8998 9.36756 76.7594 9.45386C76.619 9.54016 76.5077 9.66654 76.4397 9.81669C76.3718 9.96685 76.3504 10.1339 76.3783 10.2963C76.4062 10.4587 76.4822 10.6091 76.5963 10.728C76.7104 10.8469 76.8575 10.9288 77.0187 10.9633C77.1798 10.9978 77.3476 10.9833 77.5004 10.9216C77.6532 10.8598 77.784 10.7537 77.876 10.617C77.968 10.4802 78.0169 10.3191 78.0164 10.1543C78.0193 10.0482 78.0012 9.9427 77.963 9.84375C77.9248 9.7448 77.8674 9.65442 77.794 9.57787C77.7206 9.50131 77.6327 9.4401 77.5355 9.39779C77.4382 9.35549 77.3335 9.33293 77.2275 9.33142V9.33248ZM77.4289 10.7226C77.3844 10.6452 77.3653 10.6166 77.3229 10.5318C77.2094 10.325 77.1744 10.2667 77.1331 10.2508C77.1219 10.2451 77.1096 10.2422 77.097 10.2423V10.7226H76.8712V9.57213H77.2953C77.3404 9.56903 77.3856 9.57558 77.428 9.59134C77.4703 9.60709 77.5089 9.63169 77.541 9.6635C77.5731 9.6953 77.598 9.73358 77.6142 9.77578C77.6303 9.81799 77.6373 9.86315 77.6346 9.90826C77.6413 9.98417 77.6183 10.0597 77.5704 10.119C77.5226 10.1783 77.4536 10.2168 77.378 10.2264C77.3957 10.2409 77.4114 10.2576 77.4247 10.2762C77.4904 10.3589 77.7004 10.7226 77.7004 10.7226H77.4289ZM77.3112 9.7736C77.2691 9.76184 77.2256 9.75613 77.1819 9.75663H77.0992V10.0684H77.1766C77.2762 10.0684 77.3197 10.0567 77.3505 10.0291C77.38 9.99802 77.396 9.95646 77.395 9.91356C77.3981 9.88431 77.3916 9.85484 77.3765 9.82959C77.3614 9.80435 77.3385 9.7847 77.3112 9.7736V9.7736Z" fill="white"/>
<path d="M17.158 5.14829C16.3469 1.42111 11.8774 -0.770665 7.17364 0.251526C2.46986 1.27372 -0.684729 5.12496 0.12539 8.85109C0.935509 12.5772 5.40601 14.7711 10.1087 13.7479C14.8114 12.7246 17.9682 8.87866 17.158 5.14829ZM8.64224 10.4353C7.96275 10.4353 7.29851 10.2338 6.73354 9.85627C6.16856 9.47876 5.72821 8.9422 5.46818 8.31443C5.20815 7.68666 5.14011 6.99588 5.27267 6.32944C5.40524 5.663 5.73244 5.05084 6.21292 4.57037C6.69339 4.08989 7.30556 3.76268 7.97199 3.63012C8.63843 3.49756 9.32921 3.56559 9.95698 3.82562C10.5848 4.08566 11.1213 4.526 11.4988 5.09098C11.8763 5.65596 12.0778 6.32019 12.0778 6.99969C12.0778 7.45086 11.989 7.8976 11.8163 8.31443C11.6437 8.73125 11.3906 9.10999 11.0716 9.42901C10.7525 9.74804 10.3738 10.0011 9.95698 10.1738C9.54016 10.3464 9.09341 10.4353 8.64224 10.4353V10.4353Z" fill="#0097A0"/>
<path d="M9.40197 2.18994C8.4264 2.19015 7.4728 2.47963 6.66174 3.02179C5.85068 3.56394 5.21859 4.33441 4.8454 5.23579C4.47221 6.13716 4.37468 7.12895 4.56513 8.08575C4.75558 9.04256 5.22547 9.9214 5.91538 10.6112C6.60529 11.3009 7.48424 11.7706 8.44108 11.9609C9.39792 12.1511 10.3897 12.0534 11.291 11.68C12.1923 11.3066 12.9626 10.6744 13.5046 9.86318C14.0466 9.052 14.3359 8.09833 14.3359 7.12276C14.3359 6.47488 14.2082 5.83335 13.9603 5.23481C13.7123 4.63626 13.3489 4.09242 12.8907 3.63436C12.4325 3.17629 11.8886 2.81296 11.29 2.56513C10.6914 2.31729 10.0499 2.1898 9.40197 2.18994V2.18994ZM8.64169 10.0006C8.04818 10.0006 7.468 9.82459 6.97452 9.49486C6.48103 9.16512 6.09641 8.69646 5.86928 8.14813C5.64216 7.5998 5.58273 6.99643 5.69852 6.41432C5.81431 5.83222 6.10011 5.29752 6.51978 4.87785C6.93946 4.45817 7.47415 4.17237 8.05626 4.05658C8.63836 3.9408 9.24173 4.00022 9.79006 4.22735C10.3384 4.45447 10.8071 4.8391 11.1368 5.33258C11.4665 5.82607 11.6425 6.40625 11.6425 6.99976C11.6425 7.79544 11.3265 8.55856 10.764 9.12129C10.2014 9.68403 9.43844 10.0003 8.64275 10.0006H8.64169Z" fill="#5BC6CC"/>
</g>
<defs>
<clipPath id="clip0">
<rect width="78.2486" height="14" fill="white"/>
</clipPath>
</defs>
</svg>
