<svg width="14" height="15" viewBox="0 0 14 15" fill="none" xmlns="http://www.w3.org/2000/svg">
<g clip-path="url(#clip0)">
<path d="M9.33329 13.3333V11.0758C9.35517 10.7976 9.31759 10.518 9.22305 10.2555C9.12851 9.99296 8.97917 9.75359 8.78496 9.55326C10.6166 9.34909 12.5416 8.65492 12.5416 5.46992C12.5415 4.65549 12.2282 3.87229 11.6666 3.28242C11.9325 2.56988 11.9137 1.78229 11.6141 1.08326C11.6141 1.08326 10.9258 0.87909 9.33329 1.94659C7.9963 1.58424 6.58695 1.58424 5.24996 1.94659C3.65746 0.87909 2.96913 1.08326 2.96913 1.08326C2.66951 1.78229 2.65071 2.56988 2.91663 3.28242C2.35087 3.87666 2.03726 4.66694 2.04163 5.48742C2.04163 8.64909 3.96663 9.34326 5.79829 9.57076C5.60637 9.76907 5.45836 10.0056 5.36389 10.2649C5.26942 10.5242 5.2306 10.8005 5.24996 11.0758V13.3333M5.24996 11.5833C2.33329 12.4583 2.33329 10.1249 1.16663 9.83326L5.24996 11.5833Z" stroke="#70CCD3" stroke-linecap="round" stroke-linejoin="round"/>
</g>
<defs>
<clipPath id="clip0">
<rect width="14" height="14" fill="white" transform="translate(0 0.5)"/>
</clipPath>
</defs>
</svg>
