<svg xmlns="http://www.w3.org/2000/svg" xmlns:xlink="http://www.w3.org/1999/xlink" viewBox="0 0 1440 276" xml:space="preserve"><style>.st6{opacity:.5;fill:#cbcfcf}.st7{opacity:.2;fill:#70ccd3}.st12{opacity:.25}.st15{fill:#fff}</style><path id="back" fill="#2c2c2c" d="M0 0h1440v276H0z"/><g id="art"><linearGradient id="SVGID_1_" x1="661.8185" x2="868.7581" y1="138" y2="138" gradientUnits="userSpaceOnUse"><stop offset="0" stop-color="#2c2c2c"/><stop offset=".8562" stop-color="#2c2c2c" stop-opacity=".1438"/><stop offset="1" stop-color="#2c2c2c" stop-opacity="0"/></linearGradient><path fill="url(#SVGID_1_)" d="M661.8 0h206.9v276H661.8z"/><defs><path id="SVGID_00000013899331255330365660000004251274109861772977_" d="M634 0h809.2v276H634z"/></defs><clipPath id="SVGID_00000125574580686884227730000008175756396075083175_"><use overflow="visible" xlink:href="#SVGID_00000013899331255330365660000004251274109861772977_"/></clipPath><linearGradient id="SVGID_00000167366386027003744250000007315615461716029629_" x1="757.2086" x2="1384.7396" y1="202.7142" y2="202.7142" gradientUnits="userSpaceOnUse"><stop offset="0" stop-color="#66e6a8"/><stop offset=".3872" stop-color="#008c99"/><stop offset="1" stop-color="#414141"/></linearGradient><circle cx="1071" cy="202.7" r="313.8" fill="url(#SVGID_00000167366386027003744250000007315615461716029629_)" clip-path="url(#SVGID_00000125574580686884227730000008175756396075083175_)" opacity=".15"/><linearGradient id="SVGID_00000050630398988374401710000014869954958213149363_" x1="823.2319" x2="1318.7163" y1="202.7142" y2="202.7142" gradientUnits="userSpaceOnUse"><stop offset="0" stop-color="#66e6a8"/><stop offset=".3872" stop-color="#008c99"/><stop offset="1" stop-color="#414141"/></linearGradient><ellipse cx="1071" cy="202.7" fill="url(#SVGID_00000050630398988374401710000014869954958213149363_)" clip-path="url(#SVGID_00000125574580686884227730000008175756396075083175_)" opacity=".1" rx="247.7" ry="252.1"/><linearGradient id="SVGID_00000063613947145896111750000012910799144508431239_" x1="889.8707" x2="1252.0775" y1="202.7142" y2="202.7142" gradientUnits="userSpaceOnUse"><stop offset="0" stop-color="#66e6a8"/><stop offset=".3872" stop-color="#008c99"/><stop offset="1" stop-color="#414141"/></linearGradient><circle cx="1071" cy="202.7" r="181.1" fill="url(#SVGID_00000063613947145896111750000012910799144508431239_)" clip-path="url(#SVGID_00000125574580686884227730000008175756396075083175_)" opacity=".1"/><linearGradient id="SVGID_00000115512632397832813970000018345152146246242973_" x1="999.4733" x2="1143.5786" y1="115.499" y2="291.2758" gradientUnits="userSpaceOnUse"><stop offset="0" stop-color="#0ab0bf"/><stop offset="1" stop-color="#2c2c2c"/></linearGradient><circle cx="1071" cy="202.7" r="114.8" fill="url(#SVGID_00000115512632397832813970000018345152146246242973_)" clip-path="url(#SVGID_00000125574580686884227730000008175756396075083175_)" opacity=".54"/><path d="M920.8 151.1H711.9c-4.4 0-8-3.7-8-8.3v-.3c0-4.6 3.6-8.3 8-8.3h208.9c4.4 0 8 3.7 8 8.3v.3c0 4.6-3.6 8.3-8 8.3z" class="st6"/><path d="M928.8 142.6c0-4.6-3.7-8.4-8.2-8.4h-64.2c-4.5 0-8.2 3.8-8.2 8.4s3.7 8.4 8.2 8.4h64.2c4.5 0 8.2-3.7 8.2-8.4z" class="st7"/><path d="M1000.6 230.8H730.3c-4.4 0-8-3.7-8-8.3v-.3c0-4.6 3.6-8.3 8-8.3h270.3c4.4 0 8 3.7 8 8.3v.3c0 4.6-3.6 8.3-8 8.3z" class="st6"/><path fill="#66e6a8" d="M1008.6 222.3c0-4.6-3.7-8.4-8.2-8.4h-99.2c-4.5 0-8.2 3.8-8.2 8.4 0 4.6 3.7 8.4 8.2 8.4h99.2c4.5-.1 8.2-3.8 8.2-8.4z" opacity=".25"/><path d="M1004.9 72.1H781.1c-4.4 0-8-3.7-8-8.3v-.3c0-4.6 3.6-8.3 8-8.3h223.8c4.4 0 8 3.7 8 8.3v.3c0 4.6-3.6 8.3-8 8.3z" class="st6"/><path fill="#0ab0bf" d="M1013.1 63.6c0-4.6-3.7-8.4-8.2-8.4h-81.4c-4.5 0-8.2 3.8-8.2 8.4 0 4.6 3.7 8.4 8.2 8.4h81.4c4.5 0 8.2-3.8 8.2-8.4z" opacity=".25"/><path d="M1210.8 133.8h208.9c4.4 0 8-3.7 8-8.3v-.3c0-4.6-3.6-8.3-8-8.3h-208.9c-4.4 0-8 3.7-8 8.3v.3c0 4.6 3.6 8.3 8 8.3z" class="st6"/><path d="M1202.8 125.2c0-4.6 3.7-8.4 8.2-8.4h37c4.5 0 8.2 3.8 8.2 8.4 0 4.6-3.7 8.4-8.2 8.4h-37c-4.5 0-8.2-3.7-8.2-8.4z" class="st7"/><path d="M1159 195.6h276.2c4.4 0 8-3.7 8-8.3v-.3c0-4.6-3.6-8.3-8-8.3H1159c-4.4 0-8 3.7-8 8.3v.3c0 4.6 3.6 8.3 8 8.3z" class="st6"/><path fill="#0ab0bf" d="M1150.8 187.1c0-4.6 3.7-8.4 8.2-8.4h49.9c4.5 0 8.2 3.8 8.2 8.4s-3.7 8.4-8.2 8.4H1159c-4.5 0-8.2-3.8-8.2-8.4z" opacity=".15"/><linearGradient id="SVGID_00000104702965591513134520000014014605856198929551_" x1="1719.3929" x2="1798.7397" y1="138" y2="138" gradientTransform="matrix(-1 0 0 1 3159.3928 0)" gradientUnits="userSpaceOnUse"><stop offset="0" stop-color="#2c2c2c"/><stop offset=".8562" stop-color="#2c2c2c" stop-opacity=".1438"/><stop offset="1" stop-color="#2c2c2c" stop-opacity="0"/></linearGradient><path fill="url(#SVGID_00000104702965591513134520000014014605856198929551_)" d="M1360.7 0h79.3v276h-79.3z"/><g><g class="st12"><linearGradient id="SVGID_00000152947852851556940310000007844945935145943967_" x1="1235.2491" x2="1325.2491" y1="205.4682" y2="205.4682" gradientUnits="userSpaceOnUse"><stop offset="0" stop-color="#70ccd3"/><stop offset=".3872" stop-color="#008c99"/><stop offset="1" stop-color="#2c2c2c"/></linearGradient><circle cx="1280.2" cy="205.5" r="45" fill="url(#SVGID_00000152947852851556940310000007844945935145943967_)"/></g><circle cx="1280.2" cy="205.5" r="35" fill="#0089d6"/><path d="M1279.1 216.5c5.5-1 10-1.8 10.1-1.8h.1l-5.2-6.2c-2.8-3.4-5.2-6.3-5.2-6.3s5.3-15 5.4-15c0 0 3.6 6.4 8.8 15.4 4.8 8.5 8.8 15.5 8.9 15.6l.1.1h-32.8l9.8-1.8zm-19.8-1.9s2.4-4.3 5.4-9.5l5.4-9.5 6.3-5.4 6.3-5.4s0 .1-.1.3c-.1.1-3.2 6.9-6.9 14.9l-6.7 14.7h-4.9c-2.6-.1-4.8-.1-4.8-.1z" class="st15"/></g><g><g class="st12"><linearGradient id="SVGID_00000044141385767745956350000008009958927241441948_" x1="726.3505" x2="816.3505" y1="141.8454" y2="141.8454" gradientUnits="userSpaceOnUse"><stop offset="0" stop-color="#70ccd3"/><stop offset=".3872" stop-color="#008c99"/><stop offset="1" stop-color="#2c2c2c"/></linearGradient><circle cx="771.4" cy="141.8" r="45" fill="url(#SVGID_00000044141385767745956350000008009958927241441948_)"/></g><circle cx="771.4" cy="141.8" r="35" class="st15"/><defs><circle id="SVGID_00000158712658874825534610000003670767207104574117_" cx="771.4" cy="141.8" r="17.2"/></defs><clipPath id="SVGID_00000034780228741960775360000003832601798875730329_"><use overflow="visible" xlink:href="#SVGID_00000158712658874825534610000003670767207104574117_"/></clipPath><path fill="#f0bf1a" d="M778.7 134.3h-23.4c-.6 0-1.1-.5-1.1-1.1v-7.5c0-.6.5-1.1 1.1-1.1h30.6c.6 0 1.1.5 1.1 1.1v.4c-.2 4.5-3.8 8.2-8.3 8.2z" clip-path="url(#SVGID_00000034780228741960775360000003832601798875730329_)"/><defs><circle id="SVGID_00000018938283194227473020000004566754510973461659_" cx="771.4" cy="141.8" r="17.2"/></defs><clipPath id="SVGID_00000044869370756980836660000013732109815599860629_"><use overflow="visible" xlink:href="#SVGID_00000018938283194227473020000004566754510973461659_"/></clipPath><path fill="#3ebeb0" d="M787 159h-32.7v-9.7h24.5c4.5 0 8.1 3.6 8.1 8.1v1.6z" clip-path="url(#SVGID_00000044869370756980836660000013732109815599860629_)"/><g><defs><circle id="SVGID_00000061446522892637261600000009389574624649712531_" cx="771.4" cy="141.8" r="17.2"/></defs><clipPath id="SVGID_00000123399695857324453810000002983464897635399349_"><use overflow="visible" xlink:href="#SVGID_00000061446522892637261600000009389574624649712531_"/></clipPath><path fill="#07a5de" d="M776.8 146.7h-24.3V137h24.3c2.7 0 4.8 2.1 4.8 4.8 0 2.7-2.2 4.9-4.8 4.9z" clip-path="url(#SVGID_00000123399695857324453810000002983464897635399349_)"/></g><g><defs><circle id="SVGID_00000101817527540026288290000011950267721182163094_" cx="771.4" cy="141.8" r="17.2"/></defs><clipPath id="SVGID_00000056424055320046173080000010381342900221982375_"><use overflow="visible" xlink:href="#SVGID_00000101817527540026288290000011950267721182163094_"/></clipPath><path fill="#231f20" d="M769.2 137h-15.9v9.7h15.9c.4-1.4.6-3.1.6-4.8 0-1.8-.2-3.4-.6-4.9z" clip-path="url(#SVGID_00000056424055320046173080000010381342900221982375_)"/></g><path fill="#d7a229" d="M762.7 127c-2.9 1.7-5.3 4.3-6.8 7.3h12.7c-1.3-2.9-3.4-5.4-5.9-7.3z"/><path fill="#019b8f" d="M763.3 157c2.5-2 4.5-4.6 5.7-7.6h-13c1.5 3.2 4.1 5.8 7.3 7.6z"/></g><g><g class="st12"><linearGradient id="SVGID_00000067228383886586387100000015427964800197316763_" x1="840.9725" x2="930.9725" y1="215.3027" y2="215.3027" gradientUnits="userSpaceOnUse"><stop offset="0" stop-color="#70ccd3"/><stop offset=".3872" stop-color="#008c99"/><stop offset="1" stop-color="#2c2c2c"/></linearGradient><circle cx="886" cy="215.3" r="45" fill="url(#SVGID_00000067228383886586387100000015427964800197316763_)"/></g><circle cx="886" cy="215.3" r="35" fill="#252f3e"/><path d="M877.5 214.8c0 .5.1 1 .2 1.3.1.3.3.7.5 1 .1.1.1.2.1.3 0 .1-.1.3-.3.4l-.9.6c-.1.1-.3.1-.4.1-.1 0-.3-.1-.4-.2-.2-.2-.4-.4-.5-.7-.1-.2-.3-.5-.4-.8-1.1 1.3-2.5 2-4.2 2-1.2 0-2.2-.3-2.9-1-.7-.7-1.1-1.6-1.1-2.7 0-1.2.4-2.2 1.3-2.9s2-1.1 3.5-1.1c.5 0 1 0 1.5.1s1.1.2 1.6.3v-1c0-1.1-.2-1.8-.7-2.3-.5-.4-1.2-.7-2.3-.7-.5 0-1 .1-1.5.2s-1 .3-1.5.5c-.2.1-.4.2-.5.2h-.2c-.2 0-.3-.1-.3-.4v-.7c0-.2 0-.4.1-.5.1-.1.2-.2.4-.3.5-.3 1.1-.5 1.8-.6.7-.2 1.4-.3 2.2-.3 1.7 0 2.9.4 3.7 1.2.8.8 1.2 1.9 1.2 3.5v4.5zm-5.8 2.2c.5 0 1-.1 1.5-.3.5-.2 1-.5 1.4-.9.2-.3.4-.6.5-.9.1-.3.1-.8.1-1.2v-.7c-.4-.1-.9-.2-1.3-.2-.5-.1-.9-.1-1.3-.1-1 0-1.7.2-2.1.6-.5.4-.7.9-.7 1.6 0 .7.2 1.2.5 1.5.2.4.7.6 1.4.6zm11.5 1.5c-.3 0-.4 0-.5-.1-.1-.1-.2-.3-.3-.6l-3.4-11c-.1-.3-.1-.5-.1-.6 0-.2.1-.4.3-.4h1.4c.3 0 .5 0 .6.1.1.1.2.3.3.6l2.4 9.5 2.2-9.5c.1-.3.2-.5.3-.6.1-.1.3-.1.6-.1h1.1c.3 0 .5 0 .6.1.1.1.2.3.3.6l2.3 9.6 2.5-9.6c.1-.3.2-.5.3-.6.1-.1.3-.1.6-.1h1.3c.2 0 .4.1.4.4v.2c0 .1 0 .2-.1.4l-3.4 11c-.1.3-.2.5-.3.6-.1.1-.3.1-.5.1h-1.2c-.3 0-.5 0-.6-.1-.1-.1-.2-.3-.3-.6l-2.2-9.2-2.2 9.2c-.1.3-.2.5-.3.6-.1.1-.3.1-.6.1h-1.5zm18.3.4c-.7 0-1.5-.1-2.2-.3-.7-.2-1.3-.4-1.6-.6-.2-.1-.4-.3-.4-.4-.1-.1-.1-.3-.1-.4v-.7c0-.3.1-.4.3-.4h.3c.1 0 .2.1.4.1.5.2 1 .4 1.6.5.6.1 1.1.2 1.7.2.9 0 1.6-.2 2.1-.5s.7-.8.7-1.4c0-.4-.1-.7-.4-1-.3-.3-.7-.5-1.4-.7l-2.1-.6c-1-.3-1.8-.8-2.3-1.5-.5-.6-.7-1.3-.7-2.1 0-.6.1-1.1.4-1.6.3-.5.6-.9 1-1.2.4-.3.9-.6 1.5-.7.6-.2 1.2-.2 1.8-.2.3 0 .6 0 1 .1.3 0 .6.1.9.2.3.1.6.1.8.2.3.1.5.2.6.3.2.1.3.2.4.4.1.1.1.3.1.5v.7c0 .3-.1.5-.3.5-.1 0-.3-.1-.5-.2-.8-.4-1.7-.6-2.7-.6-.8 0-1.5.1-1.9.4-.4.3-.7.7-.7 1.3 0 .4.1.7.4 1 .3.3.8.5 1.6.8l2 .6c1 .3 1.8.8 2.2 1.4.4.6.7 1.3.7 2 0 .6-.1 1.2-.4 1.7-.3.5-.6.9-1 1.3s-1 .6-1.6.8c-.8 0-1.4.1-2.2.1z" class="st15"/><path fill="#f90" fill-rule="evenodd" d="M904.2 225.8c-4.7 3.5-11.5 5.3-17.4 5.3-8.2 0-15.7-3-21.3-8.1-.4-.4 0-.9.5-.6 6.1 3.5 13.5 5.6 21.3 5.6 5.2 0 11-1.1 16.2-3.3.8-.3 1.5.6.7 1.1z" clip-rule="evenodd"/></g><g><g class="st12"><linearGradient id="SVGID_00000042737997105555695030000012317158743291478184_" x1="901.051" x2="991.051" y1="79.3793" y2="79.3793" gradientUnits="userSpaceOnUse"><stop offset="0" stop-color="#70ccd3"/><stop offset=".3872" stop-color="#008c99"/><stop offset="1" stop-color="#2c2c2c"/></linearGradient><circle cx="946.1" cy="79.4" r="45" fill="url(#SVGID_00000042737997105555695030000012317158743291478184_)"/></g><circle cx="946.1" cy="79.4" r="35" class="st15"/><path d="M954.9 81.9c-1.7 0-3.2.8-4.2 1.9l-2.7-1.9c.3-.8.4-1.6.4-2.5 0-.9-.2-1.7-.4-2.5l2.6-1.9c1 1.2 2.5 1.9 4.2 1.9 3.1 0 5.6-2.5 5.6-5.7 0-3.1-2.5-5.7-5.6-5.7-3.1 0-5.6 2.5-5.6 5.7 0 .6.1 1.1.2 1.6l-2.6 1.9c-1.1-1.4-2.7-2.3-4.5-2.6V69c2.6-.5 4.5-2.8 4.5-5.6 0-3.1-2.5-5.7-5.6-5.7-3.1 0-5.6 2.5-5.6 5.7 0 2.7 1.9 4.9 4.4 5.5v3.2c-3.4.6-6 3.6-6 7.2s2.6 6.6 6.1 7.2v3.4c-2.5.6-4.4 2.8-4.4 5.5 0 3.1 2.5 5.7 5.6 5.7 3.1 0 5.6-2.5 5.6-5.7 0-2.7-1.9-5-4.4-5.5v-3.4c1.7-.3 3.3-1.2 4.4-2.6l2.7 1.9c-.1.5-.2 1-.2 1.6 0 3.1 2.5 5.7 5.6 5.7 3.1 0 5.6-2.5 5.6-5.7s-2.5-5.5-5.7-5.5zm0-13.2c1.5 0 2.7 1.2 2.7 2.8 0 1.5-1.2 2.8-2.7 2.8s-2.7-1.2-2.7-2.8c0-1.6 1.2-2.8 2.7-2.8zm-16.4-5.2c0-1.5 1.2-2.8 2.7-2.8 1.5 0 2.7 1.2 2.7 2.8 0 1.5-1.2 2.8-2.7 2.8-1.5-.1-2.7-1.3-2.7-2.8zm5.4 32.2c0 1.5-1.2 2.8-2.7 2.8-1.5 0-2.7-1.2-2.7-2.8 0-1.5 1.2-2.8 2.7-2.8 1.5 0 2.7 1.3 2.7 2.8zm-2.7-12.4c-2.1 0-3.8-1.7-3.8-3.8 0-2.1 1.7-3.8 3.8-3.8 2.1 0 3.8 1.7 3.8 3.8 0 2.1-1.7 3.8-3.8 3.8zm13.7 7c-1.5 0-2.7-1.2-2.7-2.8 0-1.5 1.2-2.8 2.7-2.8s2.7 1.2 2.7 2.8c.1 1.6-1.1 2.8-2.7 2.8z"/></g><g><g class="st12"><linearGradient id="SVGID_00000065063962897568336210000015221656848487870881_" x1="1123.6852" x2="1213.6852" y1="53.4392" y2="53.4392" gradientUnits="userSpaceOnUse"><stop offset="0" stop-color="#70ccd3"/><stop offset=".3872" stop-color="#008c99"/><stop offset="1" stop-color="#2c2c2c"/></linearGradient><circle cx="1168.7" cy="53.4" r="45" fill="url(#SVGID_00000065063962897568336210000015221656848487870881_)"/></g><circle cx="1168.7" cy="53.4" r="35" fill="#326ce5"/><path fill="#fff" stroke="#fff" stroke-width=".1604" d="M1168.7 32.5c-.7 0-1.2.6-1.2 1.3v.3c0 .4.1.7.2 1.1.1.8.2 1.5.1 2.2-.1.2-.2.5-.4.6v.5c-.7.1-1.4.2-2.2.3-3.1.7-5.8 2.3-7.9 4.5-.1-.1-.4-.3-.4-.3-.2 0-.4.1-.7-.1-.5-.4-1-.9-1.6-1.5-.3-.3-.5-.6-.8-.8-.1-.1-.2-.1-.3-.2-.3-.2-.5-.3-.8-.3-.4 0-.7.1-1 .4-.4.5-.3 1.3.3 1.8.1.1.2.1.2.2.3.3.7.4 1 .6.7.4 1.3.8 1.8 1.2.2.2.2.5.2.7l.4.3c-2.1 3.1-3 6.9-2.5 10.8l-.5.1c-.1.2-.3.4-.5.5-.6.2-1.3.3-2.2.4-.4 0-.7 0-1.2.1-.1 0-.2.1-.3.1-.7.2-1.2.8-1 1.5.1.6.8 1 1.6.9.1 0 .2 0 .3-.1.4-.1.7-.3 1.1-.4.8-.3 1.5-.5 2.1-.6.3 0 .6.2.7.2l.5-.1c1.2 3.7 3.7 6.7 6.9 8.6l-.2.5c.1.2.2.5.1.7-.2.6-.6 1.2-1.1 1.9-.2.3-.4.6-.6 1 0 .1-.1.2-.2.3-.3.7-.1 1.4.5 1.7.6.3 1.3 0 1.7-.7 0-.1.1-.2.1-.3.2-.4.2-.7.3-1.1.3-.8.5-1.6.9-2.1.1-.1.3-.2.5-.3l.3-.5c2.8 1.1 5.9 1.3 9 .6l2.1-.6c.1.1.2.4.3.5.2.1.4.1.6.4.3.6.6 1.2.8 2 .1.4.2.7.3 1.1 0 .1.1.2.1.3.3.7 1.1 1 1.7.7.6-.3.8-1 .5-1.7 0-.1-.1-.2-.2-.3-.2-.4-.4-.6-.6-1-.5-.7-.8-1.3-1.1-1.9-.1-.3 0-.5.1-.7 0-.1-.1-.3-.2-.5 3.3-1.9 5.8-5.1 6.9-8.7.2 0 .4.1.5.1.2-.1.3-.3.7-.2.6.1 1.3.3 2.1.6.4.1.7.3 1.1.4.1 0 .2 0 .3.1.7.2 1.4-.2 1.6-.9.1-.6-.3-1.3-1-1.5-.1 0-.2-.1-.3-.1-.4-.1-.8-.1-1.2-.1-.8-.1-1.5-.2-2.2-.4-.3-.1-.4-.4-.5-.5l-.5-.1c.3-1.8.2-3.7-.3-5.6-.4-1.9-1.2-3.6-2.3-5.2.1-.1.4-.3.4-.4 0-.2 0-.4.2-.7.5-.4 1.1-.8 1.8-1.2.3-.2.7-.3 1-.6.1-.1.2-.1.3-.2.6-.5.7-1.2.3-1.8-.4-.5-1.2-.6-1.8-.1-.1.1-.2.1-.3.2l-.8.8c-.6.6-1.1 1.1-1.6 1.5-.2.1-.6.1-.7.1l-.5.3c-2.6-2.7-6.2-4.4-10-4.8v-.5c-.2-.1-.3-.3-.4-.6-.1-.6 0-1.3.1-2.2.1-.4.1-.7.2-1.1v-.3c.5-.5-.1-1.1-.7-1.1zm-1.5 9.3-.4 6.3c0 .6-.5 1-1.1 1-.2 0-.4-.1-.6-.2l-5.2-3.6c1.6-1.6 3.6-2.7 6-3.2.4-.2.9-.3 1.3-.3zm3 0c2.7.3 5.3 1.6 7.2 3.4l-5.1 3.6c-.5.3-1.1.2-1.5-.2-.1-.2-.2-.4-.2-.6l-.4-6.2zm-12.1 5.7 4.7 4.2c.4.4.5 1 .1 1.4-.1.2-.3.3-.5.4l-6.1 1.7c-.3-2.7.4-5.4 1.8-7.7zm21.2 0c.7 1.1 1.2 2.4 1.5 3.8.3 1.4.4 2.7.3 4l-6.1-1.7c-.5-.1-.9-.7-.8-1.2l.3-.6 4.8-4.3zm-11.6 4.6h1.9l1.2 1.5-.4 1.9-1.7.8-1.7-.8-.4-1.9 1.1-1.5zm6.2 5.1h.2l6.3 1.1c-.9 2.6-2.7 4.8-5 6.2l-2.4-5.8c-.2-.5 0-1.1.5-1.4.1-.1.3-.1.4-.1zm-10.5 0c.5 0 .9.3 1 .8.1.2 0 .4-.1.6l-2.4 5.8c-2.2-1.4-4-3.6-5-6.2l6.2-1h.3zm5.2 2.5c.2 0 .3 0 .5.1s.4.3.5.4l3.1 5.5-1.2.3c-2.3.5-4.7.4-6.8-.3l3.1-5.5c.1-.3.5-.5.8-.5z"/></g><g><g class="st12"><linearGradient id="SVGID_00000039100367006681866550000014107544075507207855_" x1="1274.4413" x2="1364.4413" y1="81.7563" y2="81.7563" gradientUnits="userSpaceOnUse"><stop offset="0" stop-color="#70ccd3"/><stop offset=".3872" stop-color="#008c99"/><stop offset="1" stop-color="#2c2c2c"/></linearGradient><circle cx="1319.4" cy="81.8" r="45" fill="url(#SVGID_00000039100367006681866550000014107544075507207855_)"/></g><circle cx="1319.4" cy="81.8" r="35" class="st15"/><path fill="#ea4335" d="M1324.4 74.1h1.1l3.1-3 .2-1.3c-5.7-5-14.4-4.5-19.5 1.2-1.4 1.6-2.4 3.5-3 5.5.3-.1.7-.2 1.1-.1l6.1-1s.3-.5.5-.5c2.7-3 7.3-3.3 10.4-.8z"/><path fill="#4285f4" d="M1332.9 76.5c-.7-2.6-2.2-4.9-4.2-6.7l-4.3 4.3c1.8 1.5 2.9 3.7 2.8 6v.8c2.1 0 3.8 1.7 3.8 3.8 0 2.1-1.7 3.8-3.8 3.8h-7.7l-.8.8v4.6l.8.8h7.7c5.5 0 10-4.4 10-9.8.1-3.5-1.5-6.6-4.3-8.4z"/><path fill="#34a853" d="M1311.9 94.5h7.7v-6.1h-7.7c-.5 0-1.1-.1-1.6-.3l-1.1.3-3.1 3-.3 1.1c1.8 1.3 3.9 2 6.1 2z"/><path fill="#fbbc05" d="M1311.9 74.7c-5.5 0-9.9 4.5-9.9 10 0 3.1 1.5 5.9 3.9 7.8l4.4-4.4c-1.9-.9-2.8-3.1-1.9-5 .9-1.9 3.1-2.8 5.1-1.9.8.4 1.5 1.1 1.9 1.9l4.4-4.4c-1.8-2.5-4.8-4-7.9-4z"/></g><g id="Vert_x5F_RGB_x5F_Rev_00000173844916509521385960000005128994712129181824_"><defs><path id="SVGID_00000056418095575117041520000009510992372317958275_" d="M1034.3 165.7h73.7v59.7h-73.7z"/></defs><clipPath id="SVGID_00000138541464710126888730000016094907923542264705_"><use overflow="visible" xlink:href="#SVGID_00000056418095575117041520000009510992372317958275_"/></clipPath><g clip-path="url(#SVGID_00000138541464710126888730000016094907923542264705_)"><defs><path id="SVGID_00000132050342909091867620000000819005790786668698_" d="M1034.3 165.7h73.7v59.7h-73.7z"/></defs><clipPath id="SVGID_00000113352595724350840220000001914392105079337097_"><use overflow="visible" xlink:href="#SVGID_00000132050342909091867620000000819005790786668698_"/></clipPath><path fill="#008c99" d="M1107.5 187.7c-3.5-15.9-22.5-25.3-42.6-20.9-20.1 4.4-33.5 20.8-30.1 36.7 3.5 15.9 22.5 25.3 42.6 20.9 20-4.4 33.5-20.8 30.1-36.7m-37.7 27.7c-11.2 0-20.3-9.1-20.3-20.3 0-11.2 9.1-20.3 20.3-20.3 11.2 0 20.3 9.1 20.3 20.3-.1 11.3-9.1 20.3-20.3 20.3" clip-path="url(#SVGID_00000113352595724350840220000001914392105079337097_)"/><path fill="#70ccd3" d="M1074.8 170.1c-14.3 0-25.9 11.6-25.9 25.9 0 14.3 11.6 25.9 25.9 25.9 14.3 0 25.9-11.6 25.9-25.9.1-14.3-11.5-25.9-25.9-25.9m-5 45c-11 0-19.9-8.9-19.9-19.9 0-11 8.9-19.9 19.9-19.9 11 0 19.9 8.9 19.9 19.9 0 11-8.9 19.9-19.9 19.9" clip-path="url(#SVGID_00000113352595724350840220000001914392105079337097_)"/><path fill="#fff" d="m1062.6 193.2-2.2-4.6c-.5-1.1-1.1-2.3-1.2-2.9.1.8.1 1.8.1 2.7l.1 4.7h-1.6v-9.8h1.8l2.4 4.8c.5.9.9 2.1 1 2.5 0-.5-.1-1.9-.1-2.8v-4.5h1.5v9.8h-1.8zM1067.3 190v.1c0 1 .4 2 1.8 2 .7 0 1.2-.2 1.8-.7l.6.9c-.7.6-1.6.9-2.6.9-2 0-3.3-1.5-3.3-3.7 0-1.3.3-2.1.9-2.8.6-.7 1.3-1 2.2-1 .7 0 1.4.2 2 .7.6.6.9 1.4.9 3.1v.3h-4.3zm1.3-2.9c-.9 0-1.4.7-1.4 1.8h2.6c.1-1.2-.4-1.8-1.2-1.8M1079.8 193.2h-1.5l-.9-3.3c-.2-.8-.5-1.9-.5-1.9s-.1.7-.5 2l-.9 3.2h-1.5l-1.9-7.1 1.5-.2.8 3.5c.2.9.4 1.9.4 1.9s.1-.9.4-1.9l.9-3.3h1.5l.8 3.2.5 2s.2-1.1.4-1.9l.7-3.3h1.6l-1.8 7.1zM1061.4 205.7l-.8-1.5c-.7-1.2-1.1-1.9-1.7-2.4-.2-.2-.3-.3-.6-.3v4.2h-1.6V196h3c2.2 0 3.2 1.3 3.2 2.8 0 1.4-.9 2.7-2.4 2.7.4.2 1 1.1 1.5 1.9l1.4 2.3h-2zm-2.2-8.4h-.9v3.1h.8c.8 0 1.3-.1 1.6-.4.3-.3.4-.7.4-1.2 0-1-.5-1.5-1.9-1.5M1065.5 202.6v.1c0 1 .4 2 1.8 2 .7 0 1.2-.2 1.8-.7l.6.9c-.7.6-1.6.9-2.6.9-2 0-3.3-1.5-3.3-3.7 0-1.3.3-2.1.9-2.8.6-.7 1.3-1 2.2-1 .7 0 1.4.2 2 .7.6.6.9 1.4.9 3.1v.3h-4.3zm1.3-3c-.9 0-1.4.7-1.4 1.8h2.6c.1-1.1-.4-1.8-1.2-1.8M1072.6 205.9c-1.6 0-1.6-1.4-1.6-2v-6.1c0-1 0-1.5-.1-2.1l1.6-.4c.1.4.1 1 .1 2v6c0 1 0 1.1.2 1.3.1.1.3.2.5.1l.3 1c-.3.1-.6.2-1 .2M1075.3 197.6c-.6 0-1-.5-1-1 0-.6.5-1 1-1 .6 0 1 .5 1 1 .1.5-.4 1-1 1m-.7 8.1v-7l1.6-.3v7.3h-1.6zM1080.6 205.9c-1.9 0-3-1.4-3-3.7 0-2.6 1.6-3.8 3.1-3.8.8 0 1.3.2 2 .8l-.8 1c-.4-.4-.8-.5-1.2-.5-.5 0-.9.3-1.1.7-.2.4-.3 1.1-.3 2 0 1 .2 1.6.5 1.9.2.3.6.4.9.4.5 0 1-.2 1.4-.7l.7.9c-.6.7-1.3 1-2.2 1" clip-path="url(#SVGID_00000113352595724350840220000001914392105079337097_)"/></g></g></g></svg>
