<svg width="286" height="167" viewBox="0 0 286 167" fill="none" xmlns="http://www.w3.org/2000/svg">
<path fill-rule="evenodd" clip-rule="evenodd" d="M0 17.64H221.397C226.268 17.64 230.217 13.6912 230.217 8.82001C230.217 3.94886 226.268 1.52588e-05 221.397 1.52588e-05H0V17.64Z" fill="#00B3C3"/>
<path fill-rule="evenodd" clip-rule="evenodd" d="M0 68.64H276.277C281.148 68.64 285.097 64.6912 285.097 59.82C285.097 54.9488 281.148 51 276.277 51H0V68.64Z" fill="#00B3C3"/>
<path fill-rule="evenodd" clip-rule="evenodd" d="M0 166.64H174C178.871 166.64 182.82 162.691 182.82 157.82C182.82 152.949 178.871 149 174 149H0V166.64Z" fill="#00B3C3"/>
<path fill-rule="evenodd" clip-rule="evenodd" d="M0 166.64H40C44.8712 166.64 48.82 162.691 48.82 157.82C48.82 152.949 44.8712 149 40 149H0V166.64Z" fill="#F3E66A"/>
<path fill-rule="evenodd" clip-rule="evenodd" d="M0 68.64H62.6367C67.5079 68.64 71.4567 64.6912 71.4567 59.82C71.4567 54.9488 67.5079 51 62.6367 51H0V68.64Z" fill="#66E6AB"/>
<path fill-rule="evenodd" clip-rule="evenodd" d="M0 17.64H127.317C132.188 17.64 136.137 13.6912 136.137 8.82001C136.137 3.94886 132.188 1.52588e-05 127.317 1.52588e-05H0V17.64Z" fill="#70CCD3"/>
</svg>
