<svg width="329" height="116" viewBox="0 0 329 116" fill="none" xmlns="http://www.w3.org/2000/svg">
<path fill-rule="evenodd" clip-rule="evenodd" d="M329 98.1801H8.88006C4.00891 98.1801 0.0600586 102.129 0.0600586 107C0.0600586 111.871 4.00891 115.82 8.88006 115.82H329V98.1801Z" fill="#00B3C3"/>
<path fill-rule="evenodd" clip-rule="evenodd" d="M329 98.1801L236.24 98.1801C231.369 98.1801 227.42 102.129 227.42 107C227.42 111.871 231.369 115.82 236.24 115.82L329 115.82V98.1801Z" fill="#F3E66A"/>
<path fill-rule="evenodd" clip-rule="evenodd" d="M329 49.1799H106.88C102.009 49.1799 98.0601 53.1288 98.0601 57.9999C98.0601 62.8711 102.009 66.8199 106.88 66.8199H329V49.1799Z" fill="#00B3C3"/>
<path fill-rule="evenodd" clip-rule="evenodd" d="M329 0.180054H52.0001C47.1289 0.180054 43.1801 4.1289 43.1801 9.00005C43.1801 13.8712 47.1289 17.8201 52.0001 17.8201H329V0.180054Z" fill="#00B3C3"/>
<path fill-rule="evenodd" clip-rule="evenodd" d="M329 0.180054H265.64C260.769 0.180054 256.82 4.1289 256.82 9.00005C256.82 13.8712 260.769 17.8201 265.64 17.8201H329V0.180054Z" fill="#66E6AB"/>
<path fill-rule="evenodd" clip-rule="evenodd" d="M329 49.18L147 49.1801C142.129 49.1801 138.18 53.1289 138.18 58.0001C138.18 62.8712 142.129 66.8201 147 66.8201L329 66.82V49.18Z" fill="#70CCD3"/>
</svg>
